<?xml version="1.0" encoding="UTF-8"?>
<!-- Generator: Adobe Illustrator 23.0.1, SVG Export Plug-In . SVG Version: 6.00 Build 0)  -->
<svg version="1.1" xmlns="http://www.w3.org/2000/svg" xmlns:xlink="http://www.w3.org/1999/xlink" x="0px" y="0px" viewBox="0 0 7632 6480" style="enable-background:new 0 0 7632 6480;" xml:space="preserve" data-ember-extension="1">
<style type="text/css">
	.st0{stroke:#000000;stroke-miterlimit:10;}
	.st1{fill:none;stroke:#000000;stroke-width:10;stroke-miterlimit:10;}
	.st2{fill:none;stroke:#000000;stroke-width:16;stroke-miterlimit:10;}
	.st3{stroke:#000000;stroke-width:10;stroke-miterlimit:10;}
	.st4{fill:#662D91;stroke:#FFFFFF;stroke-width:10;stroke-miterlimit:10;}
	.st5{fill:#FFFFFF;}
</style>
<g id="Layer_1">
	<path class="st0" d="M3276.95,2057.07l-13.49-26.15l-33.51-11.77h-126.79l-116.83,41.66l-38.04,21.74l-12.68,27.17l-49.81,45.28   l-14.59,14.59c-34.32,18.92-3.42,70.68,22.17,36.64l27.13-37.17c1-0.31,1.92-0.83,2.71-1.52l71.26-62.35l61.13-31.7l47.55-22.64   h45.28h31.7l96.52,8.04C3277.79,2058.98,3278.05,2057.33,3276.95,2057.07z"/>
	<polyline class="st1" points="3660.13,2199.85 3609.18,2168.15 3609.18,2204.38 3574.09,2267.77 3574.09,2322.11 3528.81,2380.98    3483.53,2412.68 3447.3,2430.79 3392.96,2453.43 3347.68,2485.13 3325.04,2485.13 3325.04,2516.83  "/>
	<polyline class="st0" points="3587.11,1978.24 3537.87,2000.6 3492.58,1989.42 3451.83,1989.42 3492.58,1955.32 3519.47,1932.68    3555.98,1937.21  "/>
	<path class="st1" d="M2342.4,3826.42v125.89v54.34l36.23,31.7v40.75l31.7,40.75v63.4v49.81l31.7,63.4v40.75l45.28,72.45   l58.87,67.92l45.28,72.45l49.81,58.87l45.28,45.28l76.98,40.75l76.98,49.81l76.98,36.23l47.55,31.7l52.08,54.34l22.64,54.34   l31.7,81.51l22.64,67.92l31.7,81.51l36.23,90.57l45.28,99.62l36.23,67.92l45.28,54.34l54.34,36.23l45.28,18.11h63.4h63.4h49.81   l44.14-49.81l23.79-22.64l40.75-45.28l18.11-27.17l35.53-45.28v-31.7v-45.28l23.34-40.75l22.64-54.34v-58.87l-45.98-76.98v-67.92   l-44.58-81.51l-22.64-49.81l-27.17-45.28l40.75-31.7l31.7-22.64l21.94-49.81l45.98-54.34l76.98-22.64l63.4-18.11l108.68,40.75   l27.17,72.45l45.28,45.28l27.17,72.45v90.57l31.7,90.57l18.11,86.04v49.81v76.98v31.7l-31.7,31.7l-27.17,27.17l-22.64,40.75   l-13.58,36.23l-4.53,36.23v58.87c0,0,18.11,54.34,22.64,54.34s36.23,27.17,36.23,27.17l4.53,40.75l36.23,54.34l-18.11,63.4v45.28   l18.11,58.87l36.23,58.87l31.7,45.28l49.81,58.87l49.81,49.81l45.28,45.28l54.34,40.75l58.87,31.7h49.81h27.17l22.64-27.17   l40.75-40.75l27.17-67.92l36.23-45.28V5904l63.4-36.23l31.7-45.28v-40.75v-99.62l-27.17-63.4l-36.23-63.4l-13.58-36.23l-9.06-63.4   l-22.64-72.45v-58.87l-4.53-54.34l-13.58-104.15v-22.64l-9.06-67.92l-9.06-31.7l-13.58-67.92l-13.58-45.28v-72.45l9.06-72.45   l13.58-49.81l9.06-54.34l4.53-45.28v-58.87l4.53-54.34l9.06-45.28l4.53-54.34v-34.19v-79.02l-4.53-49.81l-18.11-40.75l-18.11-40.75   l-27.17-36.23l-31.7-13.58l-31.7-9.06l-67.92-45.28l-27.17-22.64l-31.7-45.28l-31.7-40.75l-67.92-45.28l-36.23-40.75l-40.75-54.34   l-18.11-49.81l-54.34-64.09l-49.81-53.64l-49.81-45.28l-18.11-31.7h-27.17l-18.11-40.75l-27.17-29.43l-22.64-47.55l-31.7-27.17   l-27.17-27.17l-49.81-49.81l-36.23-49.81l-36.23-36.23l-22.64-31.7h-49.81h-31.7l-40.75,18.11"/>
	<polyline class="st1" points="3325.04,5365.13 3325.04,5414.94 3365.79,5446.64 3392.96,5473.81 3415.6,5519.09  "/>
	<path class="st1" d="M3565.04,5279.09l20.91,40.75l8.51,8.2c9.72,9.36,17.5,20.55,22.88,32.92l15.62,35.87l40.75,4.53"/>
	<polyline class="st1" points="4461.64,5922.11 4461.64,5967.4 4461.64,6003.62 4461.64,6035.32 4461.64,6062.49 4461.64,6119.97     "/>
	<polyline class="st1" points="4289.57,5971.92 4330.32,5922.11 4330.32,5890.42 4330.32,5831.55 4330.32,5781.74  "/>
	<polyline class="st1" points="3447.3,5340.23 3492.58,5365.13 3510.7,5401.36 3542.4,5401.36 3537.87,5442.11 3565.04,5519.09  "/>
	<polyline class="st1" points="4570.32,5904 4570.32,5953.81 4588.43,6021.04 4588.43,6048.91 4597.49,6112.3  "/>
	<polyline class="st1" points="2415.75,2658.11 2361.42,2617.36 2331.53,2617.36 2315.23,2617.36 2271.75,2617.36 2220.13,2617.36    2168.51,2592.91 2130.47,2592.91 2073.42,2625.51 2035.38,2625.51 1983.75,2625.51 1913.11,2658.11 1883.23,2658.11    1823.45,2682.57 1771.83,2698.87 1722.92,2716.08 1679.45,2747.77 1663.15,2774.94 1663.15,2807.55 1676.74,2832 1709.34,2861.89     "/>
	<path class="st1" d="M2035.38,2625.51l-24.45,54.34l-19.02-2.72l-19.02,21.74L1943,2727.4l-29.89,38.04l-32.6,58.42l76.08-21.74   h28.53h17.66l32.6-13.58l35.32-27.17l13.58-16.3l21.74-17.66l40.75-39.4l-24.45,59.77v38.04l-10.87,16.3l-10.87,32.6v27.17   l-1.38,54.17l42.13-54.17l21.74-32.6l16.3-21.74l21.74-24.45l19.02-27.17l21.74-28.53v52.98v24.45v29.89l10.87,27.17l-10.87,84.23   l38.04-65.21v-19.02l17.21-46.19l6.6,1.98c9.35,2.8,16.02-9,8.8-15.56l0,0c19.72,0,39.23-4.01,57.36-11.77l10.57-4.53   c0,0,35.32-28.58,35.32-38.04"/>
	<path class="st1" d="M2779.83,1888.69l27.17-56.54v-38.04l21.74-35.32v-24.45l27.25-38.04l43.39-40.75l19.02-38.04l13.58-29.89   v-32.6l19.02-40.75v-70.64v-46.19v-27.17v-54.34v-27.17l19.02-32.6v-43.47l21.74-51.62v-43.47l24.45-46.19v-19.02l24.45-43.47   l13.58-38.04l12.57-32.6l11.88-35.32l16.3-40.75l19.02-27.17l19.02-29.89l24.45-24.45l32.6-29.89l27.17-16.3h43.47h16.92   l11.16-46.19l12.68-32.6l16.59-29.89l4.73-48.91l33.03-51.62l19.02-40.75l19.02-43.47l21.43-35.32l36.54-21.74l15.85-19.02h44.83   l43.47-13.58h31.13h51.29l48.91-10.87h40.06h30.58l46.19,19.02l35.32,19.02l27.17,10.87l27.17,13.58l38.04,16.3l24.45,21.74   l10.87,30.55h51.62h19.02h59.77h35.32h21.74h40.75l19.02,18.36l29.89,10.87l38.04,21.74l65.21,29.89l40.75,19.02l35.32,8.15   l38.04,24.45l29.89,16.3l13.58,13.58H4535l16.3,8.15h21.74l40.75,19.02l29.89,5.43l29.89,16.3l43.47,13.58l32.6,13.58l35.32,13.58   l29.89,13.58l43.47,13.58l29.89,16.3l40.75,16.3l38.04,16.3l32.6,19.02c0,0,16.3,16.3,24.45,19.02s40.75,19.02,40.75,19.02   l27.17,21.74l40.75,24.45l21.74,16.3l21.74,19.02l24.45,21.74l24.45,19.02l24.45,16.3l16.3,16.3l24.45,19.02l21.74,13.58   l35.32,21.74l46.19,27.17l16.3,24.45l21.74,29.89l19.02,21.74l35.32,27.17l29.89,27.17l19.02,13.58l40.75,8.15l40.75,2.72   l59.77,2.72l57.06,13.58l32.6,13.58l48.91,10.87l46.19,8.15c0,0,35.32,2.72,40.75,10.87c5.43,8.15,48.91,19.02,48.91,19.02   l65.21,5.43l54.34,13.58l59.77,16.3h40.75l48.91,16.3c0,0,24.45,0,43.47,10.87c19.02,10.87,43.47,16.3,43.47,16.3l38.04,8.15   l16.3,2.72"/>
	<polyline class="st1" points="6211.38,2962.42 6178.77,2943.4 6140.74,2921.66 6102.7,2889.06 6059.23,2851.02 5991.3,2810.26    5909.79,2772.23 5844.58,2728.75 5771.23,2679.85 5700.58,2633.66 5646.25,2592.91 5562.02,2546.72 5496.81,2516.83    5456.06,2484.23 5369.11,2440.75 5314.77,2410.87 5203.38,2353.81 5162.62,2323.92 5108.28,2296.75 5021.34,2251.92    4980.58,2217.54 4882.77,2182.64 4828.43,2168.15 4738.77,2168.15 4679,2179.92 4630.09,2217.54 4581.19,2217.54 4515.98,2240.47    4464.36,2266.87 4374.7,2283.17 4320.36,2283.17 4241.57,2277.74 4208.96,2277.74 4097.57,2277.74 4010.62,2285.89    3948.13,2280.45 3877.49,2275.02 3795.98,2277.74 3768.81,2277.74 3727.36,2267.77  "/>
	<path class="st1" d="M3279.75,1910.04l-2.1-31.7l11.16-27.17l-5.58-43.47l5.58-40.75v-24.45v-46.19v-67.92v-43.47l-11.16-43.47   v-29.89l-11.49-67.92v-73.36v-35.32v-67.92v-59.77v-51.62l11.49,32.6l11.16,24.45l29.27,43.47l6.96,43.47l17.21,32.6l32.6,62.49   l27.17,65.21l12.71,35.32l7.67,59.77l29.43,43.47h0c10.03,17.19,27.26,28.97,46.92,32.06l20.72,3.26h23.83h43.81l22.07-19.02   l21.07-13.58l29.89-32.6v-35.77l29.89-32.15v-38.04l13.58-27.17v-59.77l-19.02-46.19l-10.87-43.47l-13.58-32.6v-40.75v-38.04   v-29.89l-19.02-27.17l-8.15-13.58l-10.87-43.47h-12.92h29.22l21.74-19.02v-19.02v-38.04l13.58-29.89l2.72-29.89l10.87-29.89   l11.95-53.8l4.35-19.56v-16.3V783.4v-65.21v-35.32l8.09-17.58l15.66-34.04v81.51v19.02v43.47l-18.32,108.68v19.02l2.72,40.75   l15.6,51.62v38.04v46.19l11.57,57.06l13.58,40.75c0,0-13.58,29.89,0,38.04c13.58,8.15,21.74,24.45,29.89,32.6   s48.91,35.32,48.91,35.32l24.45,35.32c0,0,13.58,21.74,21.74,27.17c8.15,5.43,48.91,35.32,54.34,43.47   c5.43,8.15,38.04,29.89,38.04,29.89l43.47,27.17c0,0,19.02,19.02,27.17,27.17c8.15,8.15,32.6,19.02,32.6,19.02l54.34,5.43   l32.6-8.15l21.74-16.3l24.45-40.75v-43.47l19.02-57.06l-13.58-43.47l-21.74-43.47l-8.15-40.75l-13.58-35.32l-27.17-51.62   c0,0-13.58-16.3-27.17-13.58c-13.58,2.72-24.45,0-24.45,0l13.58-24.45l16.3-19.02l8.15-16.3l21.74-48.91l-2.72-48.91   c0,0,2.72-10.87,0-19.02c-0.83-2.48-4.4-15.71-8.97-32.94c-10.48-39.5-26.23-100.01-26.23-100.01l-19.15-27.35l-5.43-21.74   l-5.87-13.81"/>
	<polyline class="st1" points="3288.81,1660.98 3325.04,1641.96 3374.85,1617.51 3414.72,1598.49 3439.3,1579.98  "/>
	<polyline class="st1" points="4472.51,718.19 4445.34,767.09 4410.02,816 4391,843.17 4369.26,856.75 4336.66,881.21    4306.77,911.09 4288.05,918.75 4247,935.55 4290.47,938.26 4274.17,960 4263.3,989.89 4252.43,1017.06 4238.85,1044.23    4225.26,1065.96 4225.26,1084.98 4225.26,1120.3 4241.57,1150.19 4249.72,1185.51  "/>
	<polyline class="st1" points="4692.58,1788.68 4670.85,1747.92 4630.09,1723.73 4605.64,1685.43 4570.32,1647.4 4559.45,1633.81    4535,1593.06 4502.4,1568.6 4472.51,1538.72 4415.45,1503.4 4371.98,1470.79 4347.53,1424.6 4329.87,1394.72 4274.17,1370.26  "/>
	<polyline class="st1" points="4445.34,1644.68 4404.58,1644.68 4377.42,1606.64 4329.87,1579.98 4274.17,1557.74 4249.72,1536    4206.25,1511.55 4187.23,1497.96  "/>
	<path class="st1" d="M4483.38,1166.49l86.73-16.26c0.14-0.03,0.27-0.08,0.38-0.16l67.75-46.07l46.04-32.85l80.19-50.12   c9.32-5.82-15.82,23.18-16.64,24.05l-41.66,43.97l-13.55,14.91c-0.02,0.02-0.04,0.05-0.06,0.07l-60.9,81.2   c-0.13,0.18-0.2,0.39-0.2,0.61v40.28c0,0.09-0.01,0.18-0.04,0.27l-12.12,43.98c-0.05,0.17-0.05,0.36,0,0.53l12.15,45.02"/>
	<polyline class="st1" points="2931.98,1555.02 2948.28,1620.48 2964.58,1674.57 2975.45,1723.73 2975.45,1775.09 2994.47,1818.57    3013.49,1851.17  "/>
	<polyline class="st1" points="2808.44,1796.83 2835.61,1796.83 2870.93,1796.83 2887.23,1813.13 2903.53,1851.17  "/>
	<path class="st1" d="M2997.19,1788.68v-32.6v-32.35v-20.63l16.3-20.38h38.04l35.32,20.38l21.74,20.63l11.97,6.59   c6.02,3.32,9.76,9.65,9.76,16.52l0,0c0,9.39,3.73,18.4,10.37,25.04l16.8,16.8v27.17v35.32l3.62,16.3l-62.49-16.3h-31.8h-37.03   h-16.3l-19.02-32.6L2997.19,1788.68z"/>
	<polyline class="st1" points="3384.02,1405.97 3396.58,1370.26 3414.72,1348.53 3422.4,1334.94 3467.68,1334.94 3512.51,1334.94    3535.15,1356.68 3560.51,1383.85 3587.11,1419.17 3609.18,1457.21 3630.25,1497.96 3660.13,1532.83 3660.13,1555.02  "/>
	<polyline class="st1" points="3998.69,1437.18 3998.69,1411.02 4029.64,1392 4051.38,1381.13 4078.55,1381.13 4103,1370.26    4138.32,1370.26 4165.49,1383.85 4187.23,1403.72 4206.25,1419.17  "/>
	<path class="st1" d="M3519.47,2118.34l2.61,27.17l-2.61,30.34l-26.88,16.33c11.32-16.33-11.35,25.36-25.36,25.36h0l-4.72,6.8   c-7.05,10.14-16.01,18.81-26.38,25.51l0,0c-30.64,22.64-37.56,31.51-37.56,31.51l-34.51,12.68l-16.38,2.72l-22.64,13.58h-15.4   l-31.99,21.74"/>
	<polyline class="st1" points="3463.15,2104.75 3463.15,2134.19 3451.83,2154.57 3422.4,2193.06 3399.87,2217.54 3384.02,2233.81    3322.99,2253.43 3288.81,2270.04 3266.17,2276.83 3219.98,2294.04 3203.68,2294.04  "/>
	<polyline class="st1" points="3411.41,2075.7 3399.87,2134.19 3374.39,2162.22 3338.09,2183.05 3304.66,2199.4 3277.66,2217.54    3257.11,2225.21 3220.89,2245.13 3177.87,2256 3138.47,2256  "/>
	<polyline class="st1" points="2297.11,3499.47 2334.38,3519.54 2381.63,3550.41 2415.75,3565.58 2480.96,3580.98 2543.45,3580.98    2609.57,3580.98 2676.58,3580.98 2736.36,3580.98 2768.06,3580.98 2845.04,3549.28 2896.23,3534.23 2965.04,3510.79    3036.72,3483.68 3097.75,3459.71 3193.72,3427.02 3262.16,3396.91 3325.04,3367.02 3379.38,3336.45 3428.44,3308.86    3451.83,3295.7 3482.07,3250.35 3515.23,3200.6 3536.05,3174.51 3550.61,3156.27 3562.2,3141.74  "/>
	<path class="st1" d="M2297.11,3565.58"/>
</g>
<g id="mica">
	<polygon id="glava_1_" class="st1" points="3655.6,2154.57 3655.6,2068.53 3555.98,1937.21 3510.7,1878.34 3406.55,1878.34    3279.75,1910.04 3202.77,1878.34 3098.62,1851.17 2999,1851.17 2867.68,1851.17 2808.81,1878.34 2745.42,1900.98 2672.96,1923.62    2600.51,1977.96 2541.64,2041.36 2500.89,2104.75 2478.25,2154.57 2451.08,2154.57 2414.85,2154.57 2414.85,2186.26    2383.15,2186.26 2383.15,2217.96 2360.51,2249.66 2360.51,2272.3 2328.81,2322.11 2328.81,2367.4 2328.81,2417.21 2328.81,2448.91    2279,2489.66 2156.74,2539.47 2039,2580.23 1934.85,2611.92 1794.47,2643.62 1658.62,2688.91 1604.28,2770.42 1608.81,2851.92    1672.21,2897.21 1708.43,2924.38 1731.08,2956.08 1731.08,2992.3 1740.13,3051.17 1794.47,3100.98 1875.98,3123.62    2002.77,3159.85 2088.81,3182.49 2183.91,3205.13 2242.77,3205.13 2292.58,3250.42 2292.58,3318.34 2292.58,3386.26    2297.11,3499.47 2297.11,3499.47 2355.98,3531.17 2392.21,3558.34 2514.47,3580.98 2609.57,3580.98 2691.08,3580.98    2768.06,3580.98 2845.04,3549.28 2922.02,3526.64 3008.06,3494.94 3134.85,3445.13 3193.72,3427.02 3306.92,3377.21    3379.38,3336.45 3451.83,3295.7 3515.23,3200.6 3587.11,3110.52 3542.4,2860.98 3515.23,2820.23 3506.17,2756.83 3537.87,2679.85    3574.09,2598.34 3609.18,2516.83 3655.6,2485.13 3696.36,2448.91 3727.36,2385.51 3727.36,2353.81 3727.36,2308.53    3727.36,2267.77 3682.77,2222.49 3660.13,2199.85  "/>
	<polygon class="st2" points="3422.25,2000.6 3374.85,2000.6 3326.1,2000.6 3288.81,2000.6 3288.81,1982.49 3355.53,1966.64    3392.96,1932.68 3422.25,1910.04 3467.68,1878.34 3510.7,1878.34 3555.98,1937.21 3519.47,1932.68 3492.58,1955.32    3451.83,1989.42  "/>
	<path class="st3" d="M2297.11,3522.11v43.47l26.26,27.17l19.02,46.19v38.04v48.91v48.91v51.62v21.74l35.32,19.02h38.04h43.47h51.62   l24.45-19.02l59.77-10.87l59.77-5.43l48.91-24.45l59.77,2.72l57.06,2.72c0,0,46.19,0,57.06,0s70.64-8.15,84.23-10.87   c13.58-2.72,86.94-19.02,86.94-19.02l38.04-10.87l21.74-8.15l40.75-13.58l51.62-21.74l51.62-33.96l40.75-17.66l48.91-32.6   l54.34-24.45l40.75-27.17l35.32-27.17l43.47-29.89l46.07-29.89l35.44-46.19l24.45-35.32l13.58-35.32v-67.92v-27.17v-19.02   l38.04-33.51l-40.75-48l-23.79-16.3l-25.12-24.45l-21.85-10.87l-26.15,32.77l-20.82,26.1l-9.34,14l-35.95,26.75l-18.11,54.34   l-23.39,13.16l-49.06,27.6l-54.34,30.57l-42.57,16.53l-88.75,43.47l-58.87,18.11l-72.83,28.61l-78.42,32.07l-61.58,20.83   l-57.27,16.84l-39.25,13.84l-45.78,18.85l-65.09,4.8h-38.04h-67.02h-66.11h-76.08l-51.62-15.4l-54.34-21.74l-27.04-24.31   l-37.26-20.07V3522.11z"/>
	<path class="st4" d="M3304.21,3516.68c0-55-89.66-51.62-172.18-35.28c-71.91,14.24-167.44,88.96-167.44,143.96   c0,55,94.13,55.2,167.44,55.2S3304.21,3571.68,3304.21,3516.68z"/>
	<path class="st5" d="M3226.58,3543.34c0-30.16-48.67-28.31-93.47-19.35c-39.04,7.81-90.9,48.79-90.9,78.95s51.1,30.28,90.9,30.28   C3172.91,3633.22,3226.58,3573.5,3226.58,3543.34z"/>
</g>
</svg>