<?xml version="1.0" encoding="UTF-8"?>
<!-- Generator: Adobe Illustrator 23.0.1, SVG Export Plug-In . SVG Version: 6.00 Build 0)  -->
<svg version="1.1" id="Layer_1" xmlns="http://www.w3.org/2000/svg" xmlns:xlink="http://www.w3.org/1999/xlink" x="0px" y="0px" viewBox="0 0 2800 3200" style="enable-background:new 0 0 2800 3200;" xml:space="preserve" data-ember-extension="1">
<g>
	<path d="M1577.2,312.3c-0.6,0.2-1.2,0.4-1.7,0.6c0.4,0.3,0.7,0.7,1.1,1C1576.7,313.4,1577,312.9,1577.2,312.3z"/>
	<path d="M2548.9,3061.8c-5.5-10.4-11.3-21.4-15.8-32.8c-1.4-3.7-3.3-6.8-5.6-9.4c-2.3-2.6-3-5.1-3.1-6.1c-0.3-3.1-1.3-6.1-2.9-8.8   c-1.7-2.8-3.4-5.4-5-7.8c-3-4.7-5.6-8.8-7.7-12.7c-2.8-5.5-6-10.3-9.1-14.9c-3.4-5.1-6.5-9.8-8.4-14.5c-3.9-9.6-9-20.8-17.3-30.8   c-0.1-0.2-0.2-0.4-0.3-0.6c-8.6-17.6-19.2-38.1-33.2-57.4c-0.2-0.3-0.4-0.6-0.5-0.8c-4.9-12.4-11.6-22.9-18-33c-2-3.1-3.8-6-5.6-9   c-0.6-1-1.2-2-1.8-2.9c-0.8-1.3-2-3.1-2.3-3.9c-3.1-11.1-8.2-20.8-12.8-28.8c-1-1.8-2-3.4-3-5c-2.5-4.1-4.9-8.1-6-11.4   c-3.5-10.3-8.9-18.9-13.6-26.5c-1.2-1.9-2.3-3.8-3.4-5.6c-1.1-1.8-2.2-3.5-3.3-5.1c-1.6-2.4-3.3-5-3.9-6.6   c-2.7-7.2-6.1-13.2-9.4-19l-0.3-0.5c-1-1.7-1.9-3.3-2.9-4.8c-1.8-3-3.6-5.8-4-7.8c-1.7-7.1-5.9-12-8.4-14.9c-0.3-0.3-0.5-0.6-0.8-1   c-1.9-2.3-3.8-4.3-5.6-6.1c-0.3-0.9-0.7-1.9-1-2.8c-2.3-6.4-4.7-12.9-7.1-19.5c-1.6-4.3-3.9-7.8-5.8-10.3l-2.1-2.9   c-4.8-6.7-9.7-13.6-14.8-20.3c-8.9-11.7-15.1-22.8-19-34c-1.4-3.9-2.9-7.5-4.5-11c-1.3-3.1-2.6-6-3.5-8.7   c-4.5-13.1-10.7-25.4-17.9-35.8c-1.3-6.8-3.6-13-5.8-18.6l-0.2-0.6c-4.4-11.5-8.6-24.3-13.3-40.3c-1.4-4.8-3-10-5.6-15.4   c-0.4-0.8-0.9-2.3-1.4-3.8c-0.7-2-1.4-4.2-2.4-6.7c-1-2.3-1.9-4.5-2.9-6.6c-3.4-7.7-6.4-14.3-7.3-20.8c-0.6-4.2-2.2-7.4-3.4-9.2   c-0.4-1.1-0.7-2.2-1-3.4c-0.3-2.4-0.9-7.5-4.4-12.4c-1.8-2.6-2.7-6.5-3.7-12.8c-0.6-3.5-2-8.6-5.8-13.2c-0.8-1-1.8-4.2-2.6-7   c-0.3-1.1-0.7-2.3-1.1-3.5c-6.2-19.7-16.1-38.6-29.9-57.6c-0.9-9.1-4.1-14.8-14.7-30.8c-0.6-4.2-2.4-8.1-5.4-11.2l-3.1-3.2   l-2.2-2.3c-2.4-7.9-7.2-13.8-10.4-17.7c-1.2-1.5-2.4-2.8-3.5-4c-0.9-1-2-2.2-2.6-3c-1-7.1-5.2-11.5-7-13.3   c-6.4-8-13-19.8-17.1-30.4c0.1-0.5,0.2-1,0.3-1.6c0.4-2.2,0.7-4.4,1-6.3c0.1-0.7,0.2-1.5,0.3-2.2c0.5-3.1,0.2-6.2-0.8-9.2   c-2.6-8-2.4-8.8-1.5-12.6c2.4-9.4,2.1-18.6-0.8-27.9c-0.3-1.1-0.7-2.2-1-3.4l0.1-0.4c2.5-7.1,0.7-15.1-4.5-20.5   c-0.8-0.8-1.5-1.6-2.2-2.3c-1.6-1.7-3.2-3.4-4.9-5c-1.6-1.6-3.1-2.9-4.5-4.1c-1.3-1.1-3-2.6-3.4-3.2c-5.5-8.1-11.8-14.7-17.8-21   c-2.4-2.5-4.6-4.8-6.7-7.2c-1.3-1.4-2.6-2.9-3.9-4.3c-4.9-5.4-9.5-10.6-13.7-15.9c-11.7-14.9-21.8-28.3-31-40.9   c-1.9-2.6-3.8-4.9-5.6-7.2c-2.2-2.7-4.6-5.8-6-8.1l0.6-5.1c0.6-5.3-0.9-10.6-4.2-14.8c-0.9-1.1-1.7-2.1-2.5-3.1   c-0.6-0.7-1.3-1.6-1.9-2.4c0.6-4.2-0.2-8.6-2.2-12.4c-0.9-1.7-1.9-3.5-2.8-5.2c-2.1-3.9-4.3-8-6.6-12c-1.5-2.5-2.9-5.3-4.4-8.2   c-2.3-4.4-4.6-9-7.6-13.6c-1.7-2.6-3.3-5.3-5.1-8.1c-6.8-11-14.4-23.4-25.8-33.8c-3.2-7.4-7.9-12.6-11.6-16.6   c-0.3-0.4-0.7-0.7-1-1.1c-3.9-4.3-7.9-8.7-11.7-12.8c-2.2-2.4-4.3-4.7-6.5-7l-1.5-1.6c-2.8-3.1-5.6-6.1-7.8-8.9   c4.2-3.7,6.9-7.7,8.7-10.4c9.9-7,20.4-11.3,31.4-15.8c4.8-2,8.6-5.7,10.7-10.4l0.9-2l1.8-4.1l2.5-0.9c5.9-2.2,10.5-7,12.3-13.1   c0.6-0.8,2.2-2.2,3.4-3.2c3.9-3.5,9.3-8.3,13.1-15.8c0.9-1.8,1.5-3.6,1.9-5.6c2.6-14.3,5.5-30.5,5.7-47.4c0.1-3.5,0.7-5.5,1.6-6.7   l3-0.3c6.5-0.6,12.4-4.4,15.6-10.1c2-3.5,3.3-6.8,4.4-9.6c0.5-1.2,1.1-2.8,1.7-4c12.9-3,23.5-7.6,32.9-14.4   c3.1-2.2,9.3-3.7,11.6-4.3c8.3-2,15.1-5.5,21.1-10.5c1.3-1.1,2.6-2.3,3.9-3.3l0.6-0.1l5.9-1.1c4.8-0.9,9.2-3.5,12.2-7.4   c1.4-1.8,4.7-3.1,9.9-4.9c5.6-2,12.5-4.5,18.9-9.3c2.6-1.9,4.6-4.4,6-7.3l0.3-0.7c0.4-0.2,0.9-0.5,1.3-0.7c1.4,0.3,2.9,0.5,4.3,0.5   c5.3,0,10.4-2.1,14.2-5.9c0.7-0.7,1.4-1.4,2.3-2.2c2.4-2.2,5.3-5,8-8.6c1-1.3,3.3-3,5.6-4.6c9-6.5,20.1-15.3,29.1-27.4   c6.3-3.3,10.1-8.4,12.1-11l0.5-0.7l1.4-1.8c3.6-4.8,7-9.3,10.6-13c1.1-1.1,2.1-2.2,3.1-3.3c9.9-10.2,20.9-21.6,26.8-38.2   c4.3-6.5,6.1-13.2,7.4-18.2c0.7-2.5,1.4-5.2,2-6.3c1.2-2.1,2.1-4.5,2.5-6.9c0.2-1.2,0.4-2.3,0.6-3.5c2.2-13.6,4.6-28.9,2.2-45   c-0.2-1.4-0.4-2.8-0.6-4.3c-1.1-8.6-2.5-19.3-8.9-29.6c0-0.2,0-0.4,0-0.7c0.1-2.4,0-4.6,0-6.6c0-1.5-0.1-3.6,0-4.3   c1.2-7.1,0.2-13.2-0.5-17.6c-0.2-1-0.3-2-0.4-2.8c-1-7.8-2.8-14.9-4.6-21.8c-1.9-7.1-3.6-13.7-3.9-19.8c-0.2-4.1-1.5-7.1-2.1-8.6   c-3.3-9.6-5-18.5-5.2-27.3c-0.1-2.7-0.5-5-0.8-6.7c-0.1-0.5-0.2-1.1-0.2-1.4c-0.5-5-1-10.1-1.4-15.6c-0.2-2.3-0.4-4.6-0.5-6.9   c-0.1-1-0.1-1.9-0.2-2.8c-0.2-3.2-1.2-6.2-2.8-8.9c-1-1.6-1.9-3-2.7-4.1c-0.2-0.3-0.4-0.6-0.6-0.9c-3.7-12.4-11.3-20.5-16.9-25.6   c-4.1-8.9-9.8-15.6-14.8-21.6l-1.2-1.4c-6.9-8.2-12.7-16.8-17.7-26.3c-2.3-4.5-4.1-9.8-5.8-15.5c-1.1-3.4-2.2-6.9-3.5-10.5l0.6-6   l0.4-4c0.4-3.5-0.2-7-1.6-10.2c-1.6-3.5-3.2-7.1-4.8-10.6c-3.7-8-7.2-15.6-10.1-23.3l-0.1-0.4c-3.7-9.8-7.5-19.9-12.5-29.9   c-0.4-0.9-0.6-1.3-0.7-1.5c-3.7-13.3-10.3-24.2-16.2-33c-3-4.5-3.3-6.3-3.3-6.7c-0.3-12.8-4.3-23.4-8.7-34c-1.3-3-2.4-6-3.7-9.2   c-3.2-8.3-6.6-16.8-11-25c1.1-10.5-1.5-20.1-7.6-28.7c0-0.1-0.1-0.2-0.1-0.3c-8.3-22.1-21.3-39.2-32.2-59.7   c-11.4-21.4-18.9-45-33.9-64.2c-11-14-19.7-26.7-28.3-42.2c-2.1-3.8-4.3-7.7-6.3-11.5c-0.3-0.6-0.7-1.2-1-1.8   c-0.5-0.9-1.1-2-1.4-2.6c-7.6-27.9-17.6-59.5-34.3-83.3c-4.1-5.9-8.8-11.3-13.5-16.8c-14.5-16.9-29.6-34.4-50.1-43.3   c-12.8-5.6-26.9-7.3-40.4-11.1c-19-5.3-26.5-16.2-40.4-27.9l-0.8-3.5c-2.7-11.3-13.7-14.3-22.9-19c-21.6-10.9-29.1-36-42-54.8   c-1.5-2.1-2.9-4.3-3.9-6.7c-1.1-2.7-1.4-5.6-2-8.4c-2.4-11.6-8.9-22.3-18-29.8c-1.9-1.5-4-3-5.2-5.1c-0.9-1.5-1.3-3.2-1.9-4.9   c-4.4-12.4-16.7-17.9-25.4-26.8c-15.9-16.3-43.5-14.7-60.9-29.3c-4.4-3.7-7.9-8.3-12.3-12c-3.7-3.1-7.8-5.5-12-7.9   c-16.6-9.5-33.2-19-49.9-28.6c-4.7-2.7-9.5-5.4-14.7-7.1c-4.5-1.4-9.3-1.9-13.7-3.5c-11.7-4-18.8-10.6-31.6-13   c-9.5-1.8-18.1-6.4-26.6-11.1c-42.7-23.4-86.8-49-126.4-77.1c-6.9-4.7-15.4-10.5-26.4-13.2c-1-0.5-2.2-1-3.6-1.5   c-2.5-0.8-5.5-2.2-8.6-3.7c-2.7-1.3-5.8-2.8-9.1-4.1c-2.4-1-5-2.2-7.8-3.6c-5.4-2.7-11.4-5.6-18.4-7.5c-5.4-3.5-10.9-5.5-15.4-7.1   l-1.3-0.5c-3.9-1.4-7.6-2.6-11.3-3.8c-4.7-1.5-9.1-2.9-13-4.6c-5.1-2.2-10.6-4.3-16.5-5.4l-5.4-3.6c-3.3-2.2-7.2-3.4-11.2-3.4   c-0.8,0-1.5,0-2.3,0.1c-2.7,0.3-5.2,0.7-7.4,1.1c-2.9,0.5-5.7,0.9-7.6,0.9c-0.3,0-0.5,0-0.8,0c-2.9-0.3-5.9-0.5-9-0.5   c-7,0-13.5,0.8-19.5,1.6c0,0-0.1,0-0.5,0c-1,0-2.6-0.1-4.2-0.3c-1.7-0.2-3.6-0.3-5.8-0.4c-0.3,0-0.6,0-1,0c-3.6,0-7.1,1-10.2,2.8   c-2.8-1.4-5.8-2-8.8-2c-2.2,0-4.4,0.4-6.6,1.1l-11.8,4.1l-7.7,2.7c-0.4-0.1-0.9-0.3-1.3-0.4c-3.7-1.1-6.9-2.1-9.1-3.5   c-1-0.6-1.9-1.3-2.9-1.9c-7.8-5.1-16.5-10.8-27.5-14c-5.8-4.5-12-7-17.6-8.5c-3.5-3.6-10.5-10.3-22.2-10.3l-0.3,0   c-2.3,0-4.5,0.4-6.6,1.2c-0.7-0.1-1.5-0.1-2.2-0.1c-0.3,0-0.7,0-1,0c-7.4,0.4-13.5,2.5-17.9,4.1c-1.8,0.6-4.2,1.5-5.1,1.6   c-0.2,0-0.4,0-0.6,0c-4.8,0-9.4,1.7-13,4.8c-3.2,2.8-5.3,3.1-6.8,3.1c-0.8,0-1.8-0.1-2.8-0.4c-2.1-0.5-4.2-0.8-6.3-0.8   c-10.1,0-18.7,6.1-22.4,16c-0.4,1-0.7,2.1-0.9,3.2c-0.5,0.1-1,0.3-1.5,0.5c-4.3,1.5-8,4.5-10.4,8.3c0,0-1.1,1-5.5,1.7   c-7.5,1.2-13.6,6.4-16,13.5c0,0,0,0,0,0c-0.1,0-0.2,0-0.2,0.1c-1,0.3-2.2,0.6-3.5,1c-3.7,1.2-7,3.6-9.4,6.6l0,0   c-6.7,1.7-10.3,4-16.8,9.8c-0.1,0.1-0.2,0.1-0.3,0.2c-1,0.5-2.3,1.3-3.7,2.2c-0.3,0.1-0.9,0.3-1.3,0.5c-1.1,0.4-2.4,0.8-3.8,1.5   c-6,2.5-9.5,6.8-11.3,9c0,0,0,0,0,0.1c-3.2,2.3-6.6,4.5-9.9,6.7c-1.6,1-3.2,2.1-4.7,3.1c-4,2.7-7,6.8-8.2,11.5l0,0.2   c-3.4,1.7-6.9,3.6-10.5,6.1c-4.3,3-7.9,6.3-11.3,9.5c-7.1,0.5-14.2,2.4-21.3,5.9c-1.4,0.7-2.8,1.5-4,2.5H756   c-4.8,0-9.5,1.7-13.1,4.9c-3.1,2.6-7,4.2-12.7,5.1c-4.7,0.7-9,3.1-12.1,6.7l-1.9,2.2c-2.3,0.2-4.9,0.2-7.6,0.2   c-7.8,0-17.6,0.1-27.8,4c-5,1.9-8.9,5.7-11,10.4c0,0-0.1,0.1-0.2,0.1c-4.3,2.5-7.4,6.5-8.9,11.1c-4.6,2.2-9.7,4.1-14.9,6   c-2.9,1.1-6,2.2-9,3.4c-8,3.2-16.6,6.7-25.2,11.3c-16.9,9.1-32.3,17.3-47,25c-2.8,1.5-6.1,3.1-9.3,4.2c-9.2,3.1-17.8,6.9-26.2,10.6   c-2.1,0.9-4.2,1.8-6.3,2.8c-3.6,1.5-7.9,2.8-12.5,4c-1.8,0.5-3.6,1-5.5,1.6c-2.2,0.7-4.4,1.2-6.6,1.5c-10.1,1.6-18.6,6.9-24.7,15.2   c-3.5,1.4-7.9,3.4-11.9,7.3c-4.2,4.1-10,7.2-16.8,10.8c-4.6,2.4-9.7,5.1-14.7,8.5c-9.1,2.9-15.3,8.7-19.6,12.6   c-1.8,1.6-3.6,3.3-4.7,3.9c-2.3,1.3-4.3,3-5.9,5c-5.5,7-11.9,12.8-19.6,17.7c-4,2.5-6.8,5.5-8.8,7.7c-0.5,0.5-1,1-1.3,1.4   c-2,2-4,4-6.2,6.3c-1,1-2.1,2.2-3.3,3.3c-3.6,3.6-5.6,8.5-5.7,13.6c-0.2,0.5-0.8,1.7-2.4,3.6c-1.3,1.6-2.5,3.3-3.6,4.7   c-1.1,1.6-2.6,3.5-3.3,4.2c-10.3,9-17.8,19.2-22.3,30.6c-4.7,11.6-6.2,24.4-4.6,37.9c0,0.3,0,1.1,0,1.6c0,0.9,0,1.8,0,3   c0,2.4-0.1,5-0.2,7.7c-0.3,7.3-0.5,15.5,1.3,24.2c0.9,4.4,1,9.4,1.2,14.8c0.1,3.4,0.2,6.9,0.5,10.6c0.3,3.2,0.8,6.1,1.3,8.6   c0.1,0.8,0.3,1.5,0.4,2.3c0.2,1.1,0.4,2.2,0.6,3.1c0.3,1.3,0.5,2.5,0.6,3.3c0.9,8.7,2.6,19.6,7.8,30.2c-0.1,2.6-0.3,5.2-0.2,8   c0,1.1,0,2.4,0,3.8c-0.1,5.1-0.2,11.5,1.5,18.2c1.3,5.1,1.5,10.8,1.6,16.1c0,2,0.4,4.1,1,6c1,2.8,1.9,5.4,2.7,7.7   c1.6,4.3,2.8,7.7,3.4,10.7c1.2,5.8,2.5,11.5,4.4,17l-0.2,1.4c-0.8,5.4,0.6,11,4,15.3c0.5,0.7,1.1,1.3,1.6,1.9c1,3.2,2.2,6,3.3,8.3   c0.7,1.5,1.6,3.5,1.8,4.3c-0.1,6.5,2,13.5,6,19.2c2,2.9,3.5,6.8,5.2,11.4c1.5,4,3.2,8.5,5.6,13c1.5,2.9,1.5,3.8,1.5,3.8   c-0.5,10.1,3.3,18,6.6,23.7l0.3,0.5c1.7,2.9,3.5,6,4,7.9c2,7.6,5.4,15,10.2,22.4c4.6,7.2,6.3,12.6,5.6,18   c-0.7,5.3,0.7,9.5,1.3,11.5c0,0.1,0.1,0.3,0.1,0.4c1.1,4.5,3.7,8.4,7.4,11.1c-2.5,3.2-4.8,6.4-6.9,9.7c-0.1,0-0.1,0-0.2,0.1   c-1.4,0.5-1.9,1.8-1.7,2.9c-3,4.7-5.7,9.5-8.4,14.1c-0.6,1-1.1,1.9-1.7,2.9c-0.3,0.5-0.6,1.1-0.8,1.5c-7.8,6.7-12.1,14.7-15.6,21.3   c-1.2,2.2-2.3,4.3-3.4,6c-3.7,5.8-6.2,11.7-8.5,17c-0.9,2-1.7,3.9-2.5,5.7c-0.1,0.3-0.3,0.6-0.4,0.9l-0.5,0.5l-5.2,5.5   c-2.6,2.7-4.3,6.1-5,9.8l-2.2,10.8c-9,7.8-14.3,18.2-15.1,30.2c-0.6,1.1-1.3,2.2-1.9,3.4c-2.4,4.1-5.1,8.7-7.1,14.3   c-2,5.9-2.8,11.4-3.5,16.3c-0.2,1.4-0.4,2.8-0.6,4.1c-0.1,0.3-0.2,0.7-0.4,1.1c-4.2,13.4-3.9,29.5-2.9,40.6   c0.6,6.3,2.6,11.2,4.1,14.8c0.4,0.9,0.9,2.2,1.1,2.7c0.8,5.6,1.9,10.8,3,15.8c1.6,7.3,3.1,14.1,3,20.3c-0.1,4.6,1.2,8.2,1.8,9.8   c0.4,1.2,0.9,2.4,1.6,3.6c4.1,7.4,9.8,11.1,13.3,13.3c0.5,0.4,1.2,0.8,1.5,1c1.5,1.2,3.3,2.8,5.5,4.8c1.2,1.1,2.5,2.4,4,3.7   c2.7,2.5,6.1,4.2,9.8,4.8c2.5,0.4,3.5,0.9,3.9,1.2c2.9,4,7.2,6.8,12.1,7.9c1.4,0.3,2.6,0.5,3.6,0.7c0.6,0.1,1.3,0.2,1.8,0.3   c0.4,0.2,0.8,0.5,1.2,0.8c0.8,0.5,1.7,1.1,2.7,1.7c3.1,1.8,6.6,2.7,10.1,2.7c2.5,0,5-0.5,7.3-1.4l12.7-5l2.6-1   c0.6,0,1.3-0.1,1.9-0.1c2.3-0.1,4.6-0.2,6.8-0.2c0.8,0.9,1.6,1.8,2.5,2.8c2.2,2.3,4.3,4.1,6.2,5.7c0.9,0.8,1.8,1.5,2.5,2.2   c0.9,0.8,1.9,1.8,2.9,2.8c1.5,1.5,3.2,3.1,5.1,4.8c2.2,2,4.5,3.8,6.5,5.4c0.8,0.6,1.5,1.2,2.2,1.8c2.9,2.3,6.3,3.8,9.9,4.3l0.4,0   c1.9,1.5,4,2.8,6.3,3.5l9.2,3.2l6.6,2.3c2.1,0.7,4.3,1.1,6.5,1.1c0.6,0,1.1,0,1.7-0.1c1.1-0.1,2.1-0.2,3-0.4   c2.2,0.6,4.4,0.9,6.6,0.9c1.9,0,3.6-0.2,5.1-0.5l0.5,4.1c0.8,6.7,4.9,12.6,11,15.6c4.5,2.2,8.7,5.6,13.6,9.4   c3.7,2.9,7.7,6.1,12.2,9l4.9,7.3l7.1,10.5c1.5,2.3,3.5,4.2,5.8,5.7c1.9,1.2,3.8,2.5,5.9,3.9c5,3.3,10.7,7.1,16.7,10.5   c8.5,4.9,17.3,6.4,24.3,7.6c2.8,0.5,5.4,0.9,7.6,1.5c1.7,0.4,3.3,0.6,5,0.6c5,0,10-1.9,13.7-5.4l1-1h7.7c5.2,0,10.3-2.1,14-5.7   c1.3-0.5,4.6-0.8,6.6-0.9l6.1,0.3l5.7,0.3l3.7,2.9l8.5,6.6c2.1,1.6,4.5,2.8,7,3.5c0.2,0.1,0.4,0.1,0.6,0.2c1.3,0.4,3.6,1.1,6.4,1.4   c0.1,0.3,0.3,0.7,0.5,1.1c2.4,7.2,6.2,14.2,11,20.1c2.9,3.7,5.2,7.6,6.7,11.7c3.6,9.7,8.6,18.1,13.1,25.5c1.6,2.6,3,5.1,4.4,7.5   c6.2,10.9,13.5,23.3,22.6,34.9c0.3,8.9,3.8,19.3,14.7,29.1c0.7,1.6,1.3,3.1,1.9,4.6c3.1,7.3,5.9,14.1,9.9,21   c0.2,0.4,0.4,1.5,0.6,2.2c0.6,2.2,1.3,5.1,2.8,8.3c0.7,1.5,1.5,2.9,2.5,4.1c0.4,0.5,0.9,1.1,1.3,1.6c1.3,1.6,2.3,2.9,3.1,4   c-2.8,11.3-1.3,22.3,0.5,32c0.3,1.6,0.6,3.1,0.9,4.6c1.5,7.6,2.4,12.5,0.9,16c-2.3,5.6-1.9,12,1,17.3c-0.4,3.7-0.3,7.1-0.3,10.1   c0,0.8,0,1.7,0,2.5c0,9.9,0.1,19.9,0.1,29.8c0,4.8,0,9.6,0.1,14.4c0,0.4,0,1.1-0.1,1.7c-0.1,2.3-0.2,5.5,0.3,9.1   c1.1,7.2,0.9,14.6,0.5,24.2c-0.1,2.8-0.3,5.6-0.4,8.5c-0.6,10.3-1.2,20.9,0.2,32.2c0.3,2.2,0.1,3.2,0.1,3.4c-1.4,7.8-1,15.8,1,23   c-0.1,0.8-0.1,1.6-0.2,2.4c-0.3,4.5-0.6,8.3-0.9,12.2c-0.1,1.3-0.2,2.5-0.2,3.6c-0.1,2-0.2,4.1-0.5,5.2c-2.4,9.9-2.5,19.5-0.2,29.2   c1.8,7.6,0.4,10.5,0,11.4c-2.4,5-2.5,10.8-0.5,16c1.8,4.5,1.8,7.8-0.1,12.4c-2.6,6.5-1.7,13.8,2.5,19.4c0.3,0.4,1.4,1.8-0.4,7.5   c-1.5,4.8-1.1,10,1,14.5c2.8,5.9,3.2,13.5,3.8,22.3c0.2,3.4,0.4,6.9,0.8,10.6c0.3,2.9,1.2,5.6,2.6,8.1l1.5,2.5   c0,3.6,0.2,8.4,2.3,13.4c0.5,1.2,0.7,3,0.6,6.5c0,1.7-0.1,3.5-0.2,5.3c-0.3,7.6-0.6,16.1,1.7,25c1.2,4.7,2.1,9.6,3.1,14.9   c0.9,4.7,1.8,9.6,3,14.6c-2.8,9.4-2.5,18.6,0.9,27.5c0,0.5-0.1,1.2-0.1,1.7c0,0.6-0.1,1.3-0.1,1.9c-0.5,9.5,0.4,18.3,1.3,26.8   c0.6,5.5,1.1,10.8,1.2,15.8c0.1,3.6,0.7,6.7,1.4,9.2l-1.5,6l-1.3,5.1c-0.9,3.7-0.7,7.6,0.5,11.2c1.9,5.5,2.5,12,3.1,18.9   c0.1,1.1,0.2,2.1,0.3,3.3c-2.3,8.1-2,15.5-1.7,21.7c0.1,3.4,0.3,6.7-0.2,8.6c-0.6,2.6-0.6,5.3-0.2,7.9c0.6,3.2,0.3,7.3-0.1,12   c-0.1,2.2-0.3,4.7-0.4,7.2c-3.3,6.6-5.2,13.9-5.6,21.9c-0.1,2-0.3,2.9-0.4,3.1c-4.5,9.7-6.5,19.5-8.1,28.1c-0.9,4.6-1.8,9.1-3,13.2   c-10,14-16.5,31.5-19.9,53.1c-0.9,5.7-2.5,9.4-3.5,10.9c-1.7,2.3-2.8,4.9-3.3,7.7c-0.5,2.6-0.9,4.9-1.2,7c-0.3,1.7-0.6,4.1-0.9,4.8   c-3.4,7.7-5.4,15.5-7.1,22.3c-0.6,2.5-1.2,4.8-1.8,7c-2.8,10.1-5.6,19.4-8.6,28.6c-1.7,5.4-3,10.7-4.1,15.8c-0.5,2.1-1,4.2-1.5,6.2   c-0.7,2.9-0.8,5.9-0.2,8.8l0.4,2.1c-5.3,6.3-8.2,13.4-10.3,19.7c-1.1,3.2-1.9,6.3-2.5,9c-0.7,2.8-1.3,5.4-2.1,7.1   c-5,11.1-6.3,22.9-3.8,35.8c-0.4,0.9-0.7,1.8-1.1,2.7c-3.3,8-6.7,16.3-10,24.6c-0.1,0.3-0.2,0.6-0.4,0.9c-1.3,3-3.1,7.6-3.4,13.3   c-0.5,12-3.4,24.3-9.2,38.8c-1.4,3.7-1.8,7.6-1,11.5c0.3,1.4,0.4,3.4-1,7.2c-0.2,0.5-0.4,1-0.6,1.5c-1.9,4.8-4.7,12.1-3.9,20.5   c0.1,1.3-0.5,4-1.1,6.6c-0.5,2.3-1.2,4.9-1.6,7.8c-0.6,3.6-0.1,7.4,1.3,10.8l0.5,1.1c-0.4,1.8-0.8,3.5-1.2,5.2   c-2,8.6-4.1,17.5-5.7,26.5c-0.7,3.9-2.3,8.3-4,12.9c-2.5,7-5.4,14.9-6.4,24.1c-0.3,2.4,0,4.9,0.6,7.2c-0.1,0.6-0.3,1.1-0.4,1.7   c-1.3,5.4-2.5,10.1-4.6,13.2c-4.5,6.6-4.5,13.5-4.5,17.2c0,0.3,0,0.7,0,0.9c-0.2,2.4,0,4.8,0.6,7.1c-3,4.8-4.9,10.1-5.6,15.8   c-3.3,3.9-5.1,8.9-4.8,14c0,0.2,0,1.9-4.7,8.1c-2.4,3.1-3.7,6.9-4,10.8c-0.5,7.9-5.8,15.9-11.4,24.3c-2.6,3.8-3.7,8.3-3.3,12.8   c-3,5.5-6,10.5-9.1,15.4c-2.2,3.6-4.3,7-6.3,10.5l-0.1,0c-5.1,2.5-8.9,7.1-10.4,12.6l-2.7,9.9l-2.9,2.4c-3.5,3-5.8,7-6.7,11.5   c-1.7,9.1-0.9,16.6-0.2,21.3l-3.4,13.3l-3,11.8c-0.8,3.1-0.8,6.3-0.1,9.3l0,0l-1,1.5c-3.4,5.4-4,12.1-1.7,17.9   c-0.5,1.1-1.2,2.5-1.7,3.6c-0.3,0.5-0.5,1-0.8,1.5c-1.4,2.8-2.1,5.8-2.1,8.8c0,2.9,0,5.8,0,8.6c0,6.8,0,13.2-0.1,19.6   c0,0.9,0,1.7,0,2.6c0,1.6,0,3.9-0.2,4.7c-4.9,14.4-5.3,28.1-5,39.7c0,1.3-0.1,3-0.2,4.7c-0.1,1.1-0.1,2.2-0.2,3.3   c-0.3,5.5,1.8,10.8,5.5,14.7c3.8,3.9,9,6.2,14.5,6.2h544.8c1.4,0.3,2.8,0.3,4.2,0h1365.3c5.5,0,10.7-2.2,14.5-6.2   c3.7-3.9,5.7-9.1,5.5-14.5c0-0.2,0-0.5,0-0.8C2552,3074.2,2552.3,3068.1,2548.9,3061.8z M2084.3,2166.6c0.1,0.2,0.1,0.4,0.2,0.7   c-0.2,1-0.3,2-0.4,3.1C2084.2,2169.1,2084.3,2167.8,2084.3,2166.6z M381.2,492c4.2-21.4,11-43.9,2.5-65.1c0,0,0-0.1,0-0.1l0.8-0.8   c2.2-2.2,4.2-4.8,6.8-6.4c9.5-6,17.7-13.4,24.6-22.2c8.1-4.6,13-13.7,22.9-15.5c11.8-8.6,26.3-12.9,37-23.3   c1.5-1.5,3.6-2.3,6.1-3.4c-7.9,24.9-15.9,49.8-23.9,74.6c-0.3,0.9,0,1.8,0.6,2.4c12.2,12.8,4.3,33-1.5,47   c-8.1,19.5-16.3,39-24.3,58.6c-7.7,18.9-14.9,38.3-17.7,58.6c-2.7,20.2,1,39.4,4.4,59.3c3.7,22,3.5,44.3,2.7,66.5   c-19.9-31.2-20.5-69.9-23.8-105.9c-1.8-19.5-4.5-38.7-10.4-57.4c-3.6-11.3-7.8-22.6-9.1-34.5C377.6,513.6,379.1,502.7,381.2,492z    M345.9,603.5c-0.7-3.3-1.1-6.7-1.5-10.2c-0.3-2.6-0.9-5.2-1.3-7.8c-0.5-3-1.2-6.1-1.5-9.1c-0.7-9.3-0.1-18.5-2-27.8   c-1.9-9-0.6-18.7-0.7-28c0-2.2,0.2-4.5-0.1-6.6c-2.3-19.1,3.6-34.9,16.8-47.9c-2.4,8.5-3.7,17.3-4,26.2   c-0.8,28.3,8.8,55.6,20.6,80.9C359,577.7,348.3,589.8,345.9,603.5z M405.5,818.6c-1.3-4.6-3.9-9-6.3-13.2c-2.3-4-4.2-8-3.9-12.6   c0.3-5.1-1.4-9.7-3.7-14.1c-4.5-8.7-6.5-18.4-12.1-26.6c-1.5-2.1-2.5-5-2.4-7.6c0.2-8-5.2-14.1-6.6-21.5c-0.4-2-2.6-3.5-4.2-5.6   c0.3-1.9,0.6-4.1,1-6.8c-2.6-5.6-4.1-12.1-5.4-18.6c-1.3-6.5-4-12.6-6.7-20.7c-0.1-5.7-0.4-13.1-2.2-20.6   c-1.4-5.5-0.8-11.5-0.8-17.3c0-2.2,0.1-4.4,0.2-6.6c0.3,0.2,0.6,0.5,1,0.7c4.8,2.9,10.8,2.3,15.5,5.5c11.4,7.6,11.8,23,10.5,35.1   c-1.4,12.7-3.1,24.9-2.4,37.8c0.7,11.3,2.7,22.4,5.4,33.3c5.8,23.1,15,45.1,23.6,67.3c8.4,21.7,16.5,43.9,20.4,66.9   c-1.2-0.7-2.3-1.3-3.4-2c-0.5-1.8-1.2-3.2-1-4.4c1.6-11.7-2.5-21.9-8.6-31.4C409.9,830.2,407.2,824.7,405.5,818.6z M490.7,1024   c-12.2,26.8-24.7,54.3-31.9,83c-10.5,9.8-21,19.5-31.6,29.3c-1.8-3.6-6.2-6-10.5-5.3c-4,0.6-7.3,3.3-10,6   c-3.6,3.6-6.9,7.5-10.3,11.3c-2.2-4.3-4.4-8.6-6.6-12.9c-1.1-2.1-3.8-1.2-4.6,0.6c-0.3,0.8-4-3.3-4.1-3.6c-1.5-2.4-2.7-5.1-3.6-7.8   c-1.6-4.9-2.2-9.9-1.9-15.1c0.1-1.8-2.2-3.3-3.8-2.2c-1.3,1-2.6,2-3.9,3c-0.6-6.2-1.1-12.4-1.7-18.6c-0.4-3.9,0.1-10-3.5-12.8   c-1.7-1.4-3.2-0.5-5-1c-3.6-1.1-1.6-7.6-1.4-10.4c0.5-7.3,1.2-14.6,2-21.9c1.4-12.5,3.3-24.9,5.6-37.2c0.6-0.4,1.1-0.7,1.7-1   c1.3-6.3,2.5-12.2,3.7-18.5c2.6-2.8,5.4-5.7,8.4-8.9c0.3-0.9,0.7-2.1,1.3-3.3c3.2-6.8,5.8-14,9.8-20.3c5.2-8.2,8.4-17.9,16.7-24   c1.7-1.2,2.5-3.6,3.7-5.5c6-10.4,11.8-20.9,19.6-30.2c2.1-2.5,3.4-5.9,4.5-9.2c20.6-14.8,36.3-36.4,50.3-57.4   c6-9,12.2-17.9,17-27.6c4.6-9.2,7.7-19.2,13.6-27.8c6.2-8.9,14.6-16.1,22.1-23.7c7.9-8,15.5-16.2,22.9-24.6c15-17,29-35,42-53.6   c3.7,19.2,6,38.7,6.8,58.3c0,0.2,0,0.3,0.1,0.5c0,0,0,0,0,0c-3.1,6.5-6,13.1-8.3,20c-6.1,18.5-10,37.6-15.6,56.1   c-17.7,57.7-44.1,112-70.1,166.3c-0.2-2.8-4.8-2.7-5,0.4c-0.2,3.7-0.4,7.5-0.6,11.2C502.5,998.5,496.5,1011.2,490.7,1024z    M609.6,1117.5c-0.6-4.8-1.3-9.7-1.9-14.5c-0.2-1.8-2-3.2-3.8-2.2c-12.1,7.2-24.2,14.3-36.3,21.5c-0.6-3-1.3-6-1.9-9   c-0.4-1.7-2.3-2.2-3.7-1.5c-4.8,2.4-9.8,3.9-15.1,4.6c1.2-6.7,3.2-13.1,6.2-19.3c0.7-1.5-0.1-4-2.2-3.8c-5,0.6-9.9,1.1-14.9,1.7   c-3.9,0.4-13.5,3.1-15.8-1.2c-1.6-3,0.6-7.5,1.4-10.6c0.9-3.3,1.7-6.6,1.2-10.1c-0.2-1.5-1.5-3-3.2-2.4c-3.6,1.2-7.2,2.4-10.8,3.6   c1-9.6,3.5-18.8,7.6-27.6c0.9-1.9-0.6-4.2-2.8-3.7c-3.8,1-2.3-12.3-2.3-13.9c0.3-6.2,0.6-12.4,0.9-18.6c0.4-7.9,0.8-15.8,1.2-23.7   c17.9-37.6,36.3-75.1,52.2-113.6c0.2-0.2,0.5-0.4,0.7-0.7c8.9-12.6,19.7-23.6,32.1-32.7c-1.9,9.4-3.7,18.8-5.3,28.3   c-0.9,5.2-1.7,10.3-2.5,15.5c-0.7,4.8-2,9.9-1.7,14.8c0.2,4,2,7,4.2,10.2c3.3,4.9,5.3,10.2,6.6,16c2.4,10,3.1,20.3,2.3,30.5   c-0.8,11.1-3.6,22.2-8.1,32.4c-3.5,8-8.2,15.6-10.3,24.2c-1.8,7.5-1.2,15.2,4.1,21.2c2.3,2.6,5.2,4.5,7.3,7.2   c3.8,4.7-0.1,7.9,0.1,12.9c0.2,9,10.8,6.3,16.4,6.3c10.3,0,17.7,11.5,14.3,20.9c-0.7,1.8,1.3,3.5,3.1,3.1c4.4-1.2,8.8-2.4,13.2-3.6   C633.2,1093.9,622.3,1106.6,609.6,1117.5z M713.6,941.5c-2.6-1.1-4.2-3.2-5.5-6.2c-0.7-1.7-1.4-3.6-3.1-4.5   c-4.8-2.6-10.2,4.6-13.1,7.2c-2.9,2.6-5.8,5.1-8.7,7.7c-1.8,1.5-2.9,3.3-5.4,3.4c-2.3,0.1-1.8-0.3-3.5-1.4c-1.5-1-2.8-1.3-4.6-0.8   c-1.9,0.5-2,1.3-4.2,1c-2.7-0.4-3.4-2.1-4.6-4.5c-0.5-1.1-2.4-1.7-3.4-0.9c-6.4,4.9-7.2,12.4-7.6,19.9c-0.3,6.3-0.9,12.5-2.5,18.6   c-0.2,0.6-0.5,3.3-1,3.6c-2.8,1.8-3-1.3-3.4-2.6c-0.8-3.1-1.4-6.2-2.1-9.2c-5.1-22.7-9.3-46.1-5.7-69.3c1.6,1.5,3.6,2.5,5.8,3.1   c4.3,1.1,8.9,0.6,13.3,0.7c5.6,0,11.2,0.3,16.7,1c9.6,1.3,19.1,4.1,27.3,9.5C705.7,922.7,714.5,931.9,713.6,941.5z M706.8,813.5   c-9.5-7.1-22.6-8.1-33.3-3c-4.9,2.3-9.2,6.1-11.6,11.1c-3,6.3-1.9,13-1.1,19.6c0.5,4.8,1.2,10.6-2.9,14c-4,3.4-9.9,2.2-14.2,0.2   c-7.7-3.5-13.2-10.3-20.8-14c0.1-0.3,0.3-0.6,0.4-1c5.9-4.9,8-12.1,9.4-19.8c13.5-26.7,30.7-51.9,56.3-67.9   c15.5-9.7,33.5-15.8,51.9-15.6c19.6,0.3,36,9.1,51.3,20.6c14.7,10.9,28.5,23,45.7,30c16.9,7,35,9.7,52.5,14.7   c17.5,5,33.8,13,44.4,28.4c10.3,14.8,15.1,32.6,19.2,49.9c5.9,24.4,11.9,49.6,1.4,73.7c-4.7,10.7-11.3,20.5-17.8,30.2   c-2.3,3.3-4.8,7-7.9,10c-5.6-7.4-12.5-13.5-20.7-18.1c-1.6-0.9-3.2,0.1-3.6,1.5c-4.1-2.2-8.1-4.4-12.2-6.6   c-3.3-1.8-25.1-12.6-15.4-18.1c4.3-2.5,10.5-0.3,15.2-1.4c4.7-1.1,6.8-4.9,6.2-9.5c-3.7-26.5-25.4-53.5-52.8-57.1   c-25.4-3.4-52.3,12.6-54.7,39.4c-3.1,34.4,27.6,57.3,52.1,75.2c14.6,10.7,30.5,24.8,49.4,26.3c1.9,0.1,3.7,0.1,5.4-0.1   c-9,9-21.5,14.1-34.5,13.7c-10-0.3-19.7-3.2-29.7-3.4c-9.8-0.2-18.8,3.9-28.4,4.2c-10.6,0.3-16.2-7.4-19.5-16.4   c-3.3-8.9-5.6-18.3-8.3-27.5c-6.1-20.5-12.3-41-18.2-61.6c-3.2-11.1-6.6-26.4-1.9-37.9c3.3-3.2,6.2-6.8,8.7-10.8   c1.3-2-1.4-4.9-3.4-3.4c-4.2,3-7.1,6.8-9.1,11c-5.3,5.1-11.6,8.9-18.6,11.4C725.1,875.9,735.2,834.8,706.8,813.5z M698.6,2786.4   c1.8-2,3-3.3,4.6-5.1c-0.9-8.7,2.9-15.7,9.8-20.1c-4.3,10-9.1,19.8-14.6,29.2C698.6,2789.1,698.7,2787.8,698.6,2786.4z    M2531.8,3079H1162.2c-4.5-4.8-8.9-9.6-13.1-14.7c-17.6-21.1-31.4-44.4-43-69.3c-4.9-10.4-10-21.3-18.4-29.4   c-3.4-3.3-7.3-6.1-11.6-8c-5.6-2.5-13.5-2.5-17.9-7.2c-3.9-4.2-3.6-10.5-3.4-15.8c0.2-5.8,0.8-11.8-0.8-17.5   c-2.7-10-10.6-17.3-18.3-23.8c-10.6-8.9-20.3-17.3-26-30.2c-6.3-14.1-8.2-29.8-9.9-45c-0.3-2.3-3.3-3.6-4.7-1.3   c-18.9,31.8-19.9,71.9-5.4,105.6c7.3,17,18.6,32,33.2,43.4c7.2,5.6,19.3,13.4,18.3,23.9c-0.4,4.4-3.5,10.1-8.2,11.3   c-6,1.5-8.8-5.3-10.8-9.7c-3.9-8.7-10.3-14.4-20.3-14c-9.3,0.3-18.4,4.8-26.1,9.9c-3.3-7.3-6.6-14.6-9.9-21.9   c-0.6-1.4-3-1.7-3.9-0.5c-2.2,2.7-5.1,4.1-8.7,3.7c-4.2-0.5-4.5-3-5.9-6.6c-2.9-7.3-5.6-14.6-8.1-22c-5.1-14.8-9.5-29.8-13.3-45   c-0.4-1.7-3-2.6-4.2-1.1c-5.4,6.4-11.9,11.4-19.4,14.7c8.8-48.6,17.6-97.2,26.4-145.9c0.5-2.6-3.3-4.7-4.6-1.9   c-16.8,38.4-34.4,78-62.2,109.9c-6.6,7.6-13.8,14.8-21.7,21.2c-8.2,6.7-17.3,11.6-25.9,17.7c-7.1,5-12.2,11.6-13,20.5   c-0.8,9.1,2.4,18,4.3,26.7c2.3,10.5,2.4,22.4-8.1,28.4c-8.3,4.7-19.4,4.1-26-3.2c-1.7-1.9-4.8,0.1-4.2,2.4c1.8,7.3,3.7,14.7,5.5,22   c0.4,1.6,1.9,2.1,3.2,1.6c3.5,12,7,24,10.5,36c2.8,9.7,8.5,23.1,8.2,34.9H731c1.4-2.3,2.3-4.9,2.6-7.7c0.7-5.2-0.7-10.4-2.2-15.3   c-2-6.5-3.9-12.8-4.3-19.7c-0.8-12.6,1.3-25.3,2.7-37.8c1.5-13.3,3-26.7,4.5-40c0.3-2.4-2.8-3-4.3-1.8   c-13.1,11.4-26.1,22.8-39.2,34.2c-7-6.8-12.7-14.6-17.1-23.3c-0.3-0.6-0.7-0.9-1.1-1.1c-1-2.4-12.2-2.1-16.4-1.9   c-0.2-0.2-0.4-0.4-0.7-0.5c-1.9-0.9-3.8-1.9-5.7-2.8c-0.3-0.2-0.6-0.3-0.9-0.3h0c-1.8-7.3-4.8-14.2-9-20.5   c-2.3-10.1-3.4-20.3-3.3-30.6c0,0,0,0,0,0c0,0,0,0,0,0c0-0.1,0-0.2,0.1-0.4c1.6-1.4,4.3-3.7,7.6-6.4c1.2-4.5,2.6-9.6,4.3-15.9   c0.8-0.4,2.7-1.4,5.8-2.9c5.1-10.1,12.5-20.1,19.4-33.3c0,0,0.5-0.4,1.2-1.1s1.7-1.5,2.7-2.4c-0.8-1.8-1.5-3.4-2.6-5.8   c5.8-8.6,11.8-17.6,14-28.3c24.2-32.1,37.3-71.2,49.9-109.2c17.3-52.5,33.4-105.3,48.3-158.5c10.4-37.1,22.7-105.6,77.1-90.9   c46.3,12.5,66.8,65.5,74,108c4.7,28.1,5.5,56.9,5.3,85.3c-0.3,32.1-2.7,64.2-7.2,96c-0.3,1.8,1.7,4.3,3.7,2.8   c48.5-36.7,83.2-89.8,98.8-148.4c7.8-29.3,10.8-59.9,8.3-90.2c-3.1-37.4-15-73.3-24.7-109.3c-20.5-75.9-33.4-153.8-38.5-232.3   c-2-30-2.8-60-2.4-90c7.9-2.7,18.9,3.3,32.3,35c23.4,55.5,62.6,167.4,77.8,208.7c0,0,0,0.1,0,0.1c0.1,0.4,0.2,0.7,0.4,1   c3.3,9,5.4,14.4,5.8,14.6c0.3,0.2-0.4-5.4-1.6-15.3c0.3-0.5,0.4-1,0.3-1.7c-1.3-8.8-2.7-17.7-4-26.5c-11.7-87-36.6-274-19.3-268.6   c22.6,7.1,37.4,59.3,37.4,59.3s-12.7-69.9,0-77.6c2-1.2,3.8-2.2,5.4-3c9.7,26.1,16.1,53.5,22.8,80.4c9.4,37.8,18.2,75.8,26.3,114   c16.2,76.3,29.9,153.1,40.9,230.3c12.5,87.5,21.6,175.5,27.4,263.7c0.2,2.8,4.1,3.5,4.9,0.7c10.7-36.6,21.5-73.2,32.2-109.8   c5.4-18.3,10.7-36.6,16.1-54.9c2.6-8.7,5.1-17.4,7.7-26.2c2.5-8.6,6.3-17.6,6.6-26.6c0.9-23.8-27.1-28.7-38.8-44.4   c-10.5-14.2,2.6-32.4,8.1-46.2c6.3-15.9,11.2-32.3,14.8-49c2-9.3,3.5-18.6,4.5-28c6.3-27,6.1-55.6-1.6-82.6   c-0.9-3.2-5.3-1.8-4.8,1.3c4.1,26.5,4.6,53.5,1.5,80.1c-7.9,33.9-26.3,65.3-53.1,88.1c-31.3-125.1-62.6-250.3-93.9-375.4   c-31.1-124.5-63.2-248.9-85.9-375.2c-6.4-35.3-13.3-71.1-16.5-106.8c-1-10.8-0.5-21.2,2.5-31c3.1-2.4,6.7-4.9,10.5-4.9   c3.1,0,4.4,0.5,7.4-1.3c2.7-1.6,5.5-2.7,8.2-4.4c4.2-2.5,8.8-2.6,13.4-0.9c1.3,0.5,2.7-0.6,3.1-1.8c1.5-4.5,3.2-8.5,6.6-11.8   c2.8-2.7,6.4-4.9,9.7-7c1.5-0.9,4.6-3.3,6.4-3.3c1.4,0,2.4,1.5,3.4,2.3c1.4,1.2,3.3,2.6,5.4,2.1c5.4-1.3,1.5-12.5,0.9-15.8   c-0.6-2.8-0.8-7-3.1-9c-1.9-1.6-5.1-1.6-7.4-2c-0.8-0.1-1.5,0-2.1,0.4c-0.8-1-3.3-2.7-4-2.8c-1.9-0.2-2.8,0.6-3.7,1.7   c-2-1.8-4.3-3.7-6.6-3.6c-1,0-1.9,0.2-2.6,1c0-0.1-0.1-0.2-0.2-0.2c-2.9-4-10,0.3-13.3,3.5c-33.3,7.5-66-5.9-94-23.5   c3.2-16.1,9.6-31.1,19.1-44.5c9.6-13.6,21.6-25.4,32.4-37.9c20.9-24,36.5-52.2,45.4-82.8c5-17.3,7.9-35.1,8.5-53   c0.1-3-4-3.2-4.9-0.7c-12.1,33-22.4,67.4-40.1,98c-8,13.7-17.2,26.7-27.7,38.6c-9.7,11-20.7,23.5-35.6,26.7   c-1.2-6-3.8-11.6-7.5-16.3c0-0.8-0.6-1.5-1.4-1.8c-1.1-1.2-2.2-2.4-3.4-3.5c-2.4-2.1-5.9,1.4-3.5,3.5c1,0.9,1.9,1.8,2.8,2.8   c-5,11.8-10.8,23.2-17.3,34.3c-1.6,2.8,2.5,5.2,4.3,2.5c0.8,1.1,1.6,2.1,2.3,3.1c0,0.8,0,1.7,0,2.5c0,0.9,0,1.9,0.1,2.8   c0.2,1.4,0.5,2.7,1.1,4c1.3,3,3.6,5.4,6,7.5c2.7,2.3,5.9,4.4,8.7,6.9c-26.8-18.5-51.6-40.3-74.4-63.5   C844.1,1306.8,806,1252,778,1192.3c-8.1-17.2-15.2-34.8-21.5-52.7c-6.5-18.4-12.8-37.3-14.8-56.8c15.8,12.6,30.5,26.5,43.9,41.7   c1.5,1.7,4.2,0.3,4.3-1.8c0.5-8.3-1.4-16.4-5.2-23.4c15,13,25.7,30.5,30.4,50.1c0.3,1.2,1.8,2.2,3.1,1.7c6.1-2.5,12.3-5,18.4-7.4   c8.4,11.8,24.4,16,37.6,9.8c1.2-0.6,1.6-2.4,0.9-3.4c-13.4-21.1-27.8-41.5-43.2-61.2c27.2-14.8,51.1-35.1,70.3-59.3   c1.7-1.7,3.3-3.6,4.8-5.5v0c6.9-2.9,12.6-8.2,17.6-14.3c5.4-1.9,10.2-5.7,14.1-10.1c6.9-7.8,12.6-17.1,18-26   c5.6-9.3,10.4-19.3,12.8-29.9c2.6-11.5,2.2-23.2,0.5-34.8c-3.1-21.1-8.1-43.3-16.2-63c-7.2-17.7-18.3-33.1-35.2-42.6   c-17.3-9.7-37.2-12.9-56.2-17.8c-9.5-2.5-18.9-5.3-27.6-9.8c-8.9-4.6-17-10.6-24.9-16.7c-16-12.3-32.2-25.4-52.5-29.7   c-19-4.1-38.9-1.1-56.7,6.4c-15.1,6.4-28,15.6-39,26.6c3.9-5.4,7.8-10.9,11.7-16.3c11.8-16.4,22.6-34.9,42.8-41.7   c8.9-3,18.3-4.1,27.6-4.4c5.2-0.2,10.2-0.7,14.4,2.8c3,2.5,5.9,4.6,9.7,5.7c8.8,2.5,18.4-0.2,26.7-3.4c10.8-4.2,21.3-9,31.9-13.6   c2-0.8,1.4-4.2-0.6-4.6c-6.7-1.3-13.4-1.3-19.9-0.1c8.2-5.9,16.8-11.2,26-15.3c9.5-4.3,19.8-7.3,30.3-7.9c11.6-0.6,23,1.8,34.6,0.6   c2.3-0.3,3.6-3.3,1.3-4.7c-28.6-16.3-61.8-6.3-90.6,3.9c-16,5.7-31.8,10.5-48.4,13.8c-7.2,1.5-14.5,3-21.5,5c2.5-2.5,5-4.9,7.6-7.2   c26.2-14.4,58.4-17.9,85.1-31.5c17.3-8.8,33.2-20.2,51-28.1c9-4,18.2-6.4,27.9-7.9c6.8-1,14.3-2.1,19.7-6.8   c5.9-5,7.1-13.2,3.1-19.8c-1.9-3.1-4.8-5.5-8.3-6.5c-4.9-1.4-15.4,1.5-16.8-5.2c-0.3-1.5-2.4-2.5-3.7-1.5   c-14.2,10.8-28.5,21.8-44.7,29.4c-7.8,3.7-16.9,5.2-24.1,10c-7,4.6-11.9,11.4-19.2,15.7c-0.6-1.3-1-2.7-0.9-4.2   c0.5-8-13.6-0.9-32-11.3c-18.3-10.3-10.3-22.6-8.5-78.6c1.5-44.5-3-7.9-20.9,14.5c-2.3-41.1,0.9-82.5,11.3-117.4   c5.3-17.8,12-35.1,20.1-51.9c3.1,4.2,8.5,6.7,13.8,7.6c3.8,0.6,7.7,0.5,11.5,0c-9.4,22.1-7,48.1,7.6,67.8   c7.8,10.6,18.5,19.1,31,23.5c14.4,5,28.5,1,42.3-3.6c10.7-3.5,21.1-8,29.1-15.8c-6.3,15-11.9,30.2-12.6,46.8c-0.3,6.4,9.7,6.4,10,0   c1.9-44.8,43.1-82.9,29.9-129.4c-5.4-18.9-19.6-33-39.3-36.2c-19.8-3.2-44,1.3-60.1,13.5c-9.9,7.5-18.1,16.8-30.2,21   c-3.6,1.3-11,3.2-17,2.7c7.5-1.5,14.6-5.1,20.3-10.6c7.8-7.5,16.3-25.4,0.2-28.7c-6.7-1.3-13.3,0.9-19.4,3.4   c-7.3,2.9-14.2,6.5-20.7,10.8c-13.5,8.8-25.2,20-35.6,32.2c-10.7,12.4-20.1,25.9-29.2,39.6c-10.4,15.7-20.6,31.7-28.9,48.7   c-8,16.3-13.9,33.5-16.3,51.6c-1.3,10.2-1.7,20.5-2.9,30.7c-1.3,10.7-3.7,21.2-6.4,31.6c-5.4,20.3-11.4,40.5-17.2,60.7   c-0.7,2.4-1.3,4.7-2,7.1c0.5-19.2-0.2-38.5,1.3-57.5c2.1-27.9,6.1-55.6,9.6-83.3c3.4-26.9,8.5-53.6,15.8-79.8   c8.2-29.6,18.8-58.4,31.9-86.2c1.3-2.9-2.8-5.4-4.3-2.5c-22.6,44.6-43.4,90.1-62.4,136.3c-27.6,23-43.5,56.5-60.3,87.5   c-10.5,19.3-20.7,38.8-31.4,58c-8.6,15.5-18.7,31.6-34.5,40.5c-9.6,5.4-19.4,6-28-1.8c-6.6-6.1-10.7-14.8-12.4-23.6   c-3.5-18.3,2.5-37.6,11.3-53.6c9-16.6,21.7-30.8,32.8-46c10.6-14.6,18.7-29.8,23.7-47.2c2.6-9.1,4.8-18.5,8.8-27.1   c2-4.3,4.3-8.4,7.4-11.9c2.9-3.4,6.6-5.8,9.7-8.9c5.7-5.7,5.7-13.6-0.7-18.8c-6.4-5.2-14.3-3.8-21.5-1.3   c4.4-14.4,8.2-31.3-0.5-44.6c-5.7-8.7-15.7-14.8-25.8-13.1c1.6-3.9,3.2-7.8,4.8-11.8c1-2.4,1.8-4.9,3-7.1c0.4-0.8,0.9-1.8,1.6-2.4   c-0.1,0.2-0.2,0.3-0.2,0.5c-0.6,1.3-0.3,2.6,0.9,3.4c4.3,3,7.5-2.8,6.3-6.8c1.2-2.5,2.4-5.1,3.7-7.6c9.7-4.2,19.3-8.7,29.4-12.1   c4.2-1.4,8.3-3.4,12.2-5.5c15.8-8.3,31.5-16.7,47.2-25.1c7.5-4,15.2-7.2,23.1-10.3c11.5-4.5,23.6-8,34.5-15.1   c0.4-2.1,0.7-4.3,1.1-6.8c3.5-2.1,7.8-3.9,8.2-9c12.4-4.8,25.2-0.9,38.5-4.2c1.6-1.8,3.9-4.5,6.6-7.7c7.9-1.2,15.8-3.7,22.8-9.8   h19.3c-3.3,7-6.5,14.2-9.8,21.2c-9.7,20.7-19.4,41.4-29.1,62.1c-1.1,2.4,1.9,5.3,3.9,3c20.1-23.5,40.4-47.2,56.3-73.9   c3.7-6.3,7-12.9,11.2-18.9c4.7-6.6,10.8-12.2,16.6-17.9h0c3.8-2.1,7.8-3.9,11.5-5.8c0.7-2.7,1.3-4.9,2-7.5v0   c1.2-1.2,2.4-2.4,3.6-3.5c0,0,0.1-0.1,0.2-0.1c4.3-2.7,8.6-5.6,12.9-8.7c2.4-1.7,3.8-5,6.3-6.1c2.8-1.2,5.8-1.8,8.4-3.6   c1.8-1.3,3.9-2.1,5.5-3.5c6.3-5.6,6.2-5.7,15.4-7.2c1.3-1.7,3-3.8,4.6-5.8c2.5-0.8,5.3-1.2,7.5-2.6c2.9-1.9,5.3-4.4,7.7-6.9   c0.8-0.8,0.8-2.5,1.3-4.3c7.8-1.2,15.2-4,19.5-10.9c5-1.7,10.6-1.2,12.4-7.4c0.3-0.9,2.8-1,4.5-1.7c-0.9-2.4-1.6-4.5-2.4-6.5   c0.7-1.9,1.8-3,3.6-3c0.4,0,0.9,0.1,1.4,0.2c2.6,0.6,5.2,1,7.6,1c4.4,0,8.6-1,12.6-3.1c9.2,14.8,4,34.3-3.9,49   c-4.7,8.8-10.2,17.4-15.8,25.7c-5.7,8.6-12.2,16.9-20.5,23.1c-15.3,11.4-34.6,16.4-51,25.9c-15.2,8.8-29.2,19.9-41.4,32.6   c-13.8,14.4-25.3,31-33.9,49c-1.4,2.9,2.5,5.2,4.3,2.5c10.5-15.9,27.9-24.5,43.9-33.7c7.7-4.5,15.4-9.1,22.2-14.9   c3.5-2.9,6.7-6.1,9.6-9.6c3.3-4,6.2-9,10.8-11.8c4.8-2.9,10.8-2.2,16.2-3.4c4.1-0.9,8-2.4,11.7-4.4c7.8-4,14.5-9.9,20.8-16.1   c6.7-6.6,12.9-13.8,19.7-20.3c7.9-7.6,16.8-13.5,25.9-19.6c15.3-10.4,32.8-28.4,25.6-48.2c3.1-1.2,4.9-5,4.3-8.8   c-0.7-4.9-3.2-9.2-3.4-14.3c-0.2-4.2,0.5-8.3,2-12.1c2.2,1.9,4,4.5,6.9,6.2c5,1.1,11.1,2.7,15.9,7c1,0.9,2.2,1.6,3.4,1.9   c10.2,2.4,18.7,8.5,27.2,14c7,4.5,14.8,5.6,21.3,8.2c9-3.1,16.9-5.9,25.9-9c3.3,1.7,7,3.2,10.6,3.2c2.9,0,5.8-1,8.4-3.9   c4.1,0.2,7.6,0.7,10.9,0.7c1.1,0,2.1,0,3.1-0.2c5.7-0.8,11.3-1.4,16.9-1.4c2.3,0,4.6,0.1,6.9,0.3c0.9,0.1,1.9,0.1,2.8,0.1   c5.6,0,11.3-1.5,17.3-2.2c2.8,1.9,5.8,3.9,9.3,6.3c5.1,0.2,10.4,2.2,15.8,4.5c0.2,0.1,0.3,0.1,0.5,0.2   c-38.4-4.2-77.4-5.6-114.6,6.7c-21.8,7.2-42.1,18.2-61.7,29.9c-20,11.9-39.7,24.3-59.2,36.9c-22.5,14.6-44.5,30.1-64.9,47.5   c-2.1,1.8,0.7,5.6,3,3.9c17.8-13,42.5-13.4,60.6-0.9c2,1.4,4.9-1.4,3.4-3.4c-3.3-4.4-6.6-8.8-9.9-13.3   c14.3-2.9,20.9-20.1,29.6-30.4c6.7-8,15.8-13.5,25-18.1c10.7-5.3,21.8-10,32.8-14.4c10.8-4.3,21.8-8.1,33.2-10.5   c12.3-2.5,24.9-3.2,37.4-3.2c24.1,0,48.2,2.6,72.2-0.4c20.5-2.5,40.9-10.5,61.6-12h0c0,0,0,0,0,0h0c6.4,2.5,12.3,6.1,18.7,8.6   c6.5,2.6,12.5,6.3,19.2,8.4c0.8,0.3,1.5,1.1,2.3,1.3c11.4,1.9,19.9,9.7,29.3,15.4c5.7,3.5,10.8,7.9,17.5,9.6   c2.5,0.7,4.8,2.4,6.8,4.2c6.3,5.5,15,7.8,20.2,15c1.2,1.6,3.8,2.3,5.8,3.3c8.3,4.4,16.2,9.2,24.1,14.2c6.7,4.3,13.1,9,19.9,13.1   c6.4,3.8,13.4,6.8,20.1,10.2c7.1,3.6,13.6,8.3,21.5,10.3c4,5.2,10.5,6.1,15.9,9.1c2.5-0.8,5-1.6,7.9-2.6c1.7,2.9,3.4,5.8,5.4,9.2   c2.9-0.4,5.4-0.7,8.2-1.1c1,1.6,2.2,3.4,3.8,5.8c2.3,0.1,4.9,0,7.4,0.3c2.6,0.3,5.5,0.4,7.7,1.7c1,0.6,1.9,0.8,2.8,0.8   c1.7,0,3.3-0.8,5.1-1c0.8,1.4,1.7,2.8,2.7,4.4c1.6,0.4,3.2,0.8,5.3,1.3c0.6,1.4,1.2,3,2,5c5,2,10.3,4,15.5,6.1   c1.4,1.9,2.8,3.7,4.2,5.6h7.8c0.4,1.1,0.9,2.3,1.4,3.5c1.9,1,3.9,1.8,5.6,3.1c3.1,2.5,6,5.2,9.1,8h11c1.8,2.8,3.5,5.4,5.3,8.1   c7.5,5.2,14.8,11,22.8,15.8c7.9,4.7,16.4,8.5,25.4,13.1c2.6-0.4,6.1-1,9.9-1.5c2.4,2.3,4.9,4.8,7.5,7.2c2.3,2,4.7,3.9,6.8,5.5   c1.4,3.5,2.7,6.7,3.9,9.8c4.4,1.1,8.2,2.1,12.4,3.2c1.2,5.2,2.3,10.3,3.5,15.7c3.7,1.6,7.4,3.2,11.7,5c0.6,2,1.4,4.5,2.5,7.8   c1.7,1.5,4,3.5,6.9,6c0.3,5.3,0.6,11,1,17.3c3.7,4,7.6,8.2,12.1,13.1c0.3,1.4,0.7,3.6,1.3,6.6c2.5,3.1,5.6,6.9,8.7,10.7   c5.1,6.2,10,12.4,13.9,19.6c6.1,11.3,14.9,20,27.8,23.6c2.1,0.6,4,1.9,6.5,3.1c0.7,2.8,1.4,5.8,2.4,9.9c2.6,2.2,6,5,9.6,8.1   c0.5,1.8,1,3.9,1.7,6.5c11.8,9.3,24.3,17.3,39.7,20.5c9.8,2,19.5,5.2,29.1,7.9c-0.5,0.9-1.2,1.9-1.9,3.2c2.6,1.3,5.5,1.5,8.4,1.5   c1.2,0,2.3,0,3.5,0c3.7,0,7.4,0.3,10.9,2.7c-2.7,1.4-4.5,2.3-7.3,3.7c9.9,1,16.1,7.8,24.4,11.3c1.3,2.9,2.3,6.4,4.3,9.2   c1.8,2.5,4.5,4.3,7,6.2c5.1,3.7,9.6,7.8,13,13.3c1.6,2.6,4.1,4.7,6.8,7.5c0.9,8.4,4.4,16.4,10,23.6c2.6,3.4,4.1,7.7,5.7,10.8   c-0.7,2.3-1.1,3.5-1.5,4.6c0.4,1,0.6,1.9,0.9,2.7c4.9,10.9,9.8,21.8,13,33.5c0.8,3,2.5,5.7,4,8.5c6.2,11.4,12.6,22.5,18.5,34   c3.9,7.7,10.3,13.5,15.5,20c3.7,4.5,7.2,9,10,14.1c2.6,4.7,5.8,9,9.1,14.2c0.3,2.8,0.8,6.3,1.3,10.2c1.8,2.8,3.8,5.7,5.5,8.9   c4.1,7.4,7.9,15,11.9,22.4c1.3,2.4,2.4,4.9,4.1,6.9c11.2,13.1,17.7,28.7,23.7,44.6c0.6,1.6,1.4,3.3,2.4,4.7   c4.5,6.2,5.2,12.9,2.9,20.9c7.4,11.6,11.8,25.2,17.3,38.3c3.6,8.7,6.9,17.3,7.2,26.9c0.2,6.3,3.1,12.1,6.6,17.3   c5.7,8.6,10.9,17.4,13.6,27.4c0.5,1.7,1.3,3.3,2,4.9c4.6,9.2,8.2,18.8,11.8,28.4c4.5,12,10.3,23.6,15.3,35c-0.5,5-1,9.9-1.6,14.8   c4.5,10.7,6.6,22.1,12.1,32.5c5.7,10.7,12.3,20.6,20.1,29.8c5.2,6.1,10.5,12.1,13.7,19.6c0.8,1.9,2.5,3.7,4.1,5.2   c5.3,4.9,9.6,10.3,11.6,17.6c0.8,2.9,3.1,5.3,5,8.6c0.2,2.9,0.4,6.4,0.7,9.9c0.5,5.3,1,10.6,1.5,15.9c0.2,2.2,0.8,4.4,0.9,6.6   c0.3,11.6,2.7,22.9,6.5,33.8c0.3,0.8,0.8,1.7,0.9,2.5c0.8,14.8,6.9,28.5,8.7,43c0.6,4.8,1.9,9.5,1.1,14.5   c-0.8,4.4-0.1,8.9-0.3,13.4c-0.2,4.1,0.5,8.2,2.7,11.6c5.3,8.2,5.7,17.8,7.1,26.9c2.1,14.2-0.5,28.4-2.7,42.5   c-4.5,7.7-4.1,17.4-9.6,24.7c-0.3,0.4-0.6,0.7-0.7,1.1c-4.6,15.1-15.8,25.4-26.2,36.4c-4.9,5.1-9.2,10.9-13.5,16.6   c-2.5,3.3-4.7,6.6-9.4,7c-7.2,11.4-17.3,20.1-28.2,28c-3.6,2.6-7.1,5.2-9.9,8.9c-2.3,3.2-5.5,5.7-8.4,8.6c-2.9-0.9-5.4-1.6-8-2.4   c-2.1,1.5-4.1,3.3-6.3,4.7c-1.9,1.1-4,1.8-6,2.6c-1.3,2.6-2.4,5-3.6,7.4c-9.9,7.4-24.2,6.9-32.7,18c-3.5,0.6-7.4,1.4-12,2.2   c-2.3,2-4.9,4.4-7.6,6.7c-3.8,3.2-8,5.1-13,6.4c-6.4,1.6-13.1,3.7-18.4,7.4c-9.8,7-20.5,10.3-31.3,12.3c-5.2,3.4-7.5,8.1-9.5,13.1   c-11.2-31.6-20.2-64-29.6-96.1c-7-23.9-14.9-47.9-19.7-72.5c-1.3-9.6-2.6-19.2-3.9-28.8c0,0,0,0,0,0c0-0.2-0.1-0.4-0.1-0.7   c-0.4-2.8-5.1-2.1-4.9,0.7c0.7,9.9,2.1,19.7,4,29.4c8.8,65.6,17.7,131.2,26.5,196.8c0.1,0.9,0.6,1.5,1.2,1.7   c-0.2,1.7-0.4,3.4-0.4,5.3c-0.2,15.2-2.9,30.1-5.4,44.2c-4.7,9.3-15.2,12.6-17.8,22.4c-3.4,1.3-6.7,2.5-10.5,3.9   c-1.9,4.3-3.9,8.7-6.2,13.9c-12.5,5.1-25.6,10.5-38.2,20.1c-2.1,2.5-3.9,6.4-7.3,9.5c-1.2-2.3-3.8-3.7-6.5-1.7   c-19.1,14-42.3,21.6-66.1,20.6c-22.8-1-44.5-9.9-63.3-22.5c-4.3-2.8-8.4-5.9-12.3-9.1c2.1-1.8-0.3-5.7-2.9-4.1   c-0.4,0.2-0.7,0.5-1.1,0.7c-10-8.6-19-18.2-27.3-28.4c1.7-0.2,3.2-1.9,1.9-3.6c-30-42.8-49.9-91.4-64.8-141.3   c-15.8-53.1-28.4-108.1-35.3-163.1c-1.4-10.9-2.5-21.7-3.4-32.6c0,0,0,0,0,0c0.2-8.8,0.5-17.5,0.7-26.2   c1.6-53.1,4.6-106.6,11.3-159.4c3.1-24.7,8.3-49.1,18.2-72c4.3-10,9.3-19.6,14.7-29c-1.2,11.2-1.9,22.4-1.9,33.7   c-0.1,9,0.2,17.9,0.9,26.9c0.4,4.8,1,10.7,6.7,11.8c12.6,2.4,19.3-18.9,22.9-27.1c6.8-15.4,12.3-31.3,16.8-47.5   c0.5-1.7-0.8-3-2.4-3.2c-2.3-0.2-4.5-0.4-6.8-0.6c1.6-10.4,9.2-18.3,17.1-24.8c9.2-7.5,19.1-14,28.2-21.7   c9.6-8.2,18.6-17.2,26.8-26.8c5-5.9,18.3-27.4,28.1-19.4c1.2,1,3.1,1,3.9-0.5c14.2-26.7,28.3-53.4,42.5-80.1c1-1.8-0.6-4.4-2.8-3.7   c-32.8,10.6-65.2,27.2-92.7,49.2c1.8-3.5,3.6-7,5.3-10.5c10-20.5,18.3-41.8,25-63.6c1.2-1.3,2.4-2.5,3.7-3.7   c5.1-4.9,9.9-10,14.3-15.6c6.3-8.1,11.4-16.8,15.5-26.1c0,0.2,0,0.5,0,0.7v0.2c0.1,3.2,5,3.2,5,0v-0.1c0-4.8,1.5-9.1,4.2-12.7   c2.6,15.1,9.7,28.9,20.7,39.9c1.7,1.7,4.1,0.3,4.3-1.8c2.3-22.1,4.5-45-1.7-66.7c-5.7-19.9-19.1-39.7-14.7-61.2   c0.5-2.3-2.3-4.3-4.2-2.4c-1.5,1.6-3.1,3.1-4.6,4.7c-1-15.9-1.8-31.8-2.5-47.7c-0.1-3-3.9-3.2-4.9-0.7c-1.9,4.6-3.9,9.2-5.8,13.8   c-7.8-15.1-12.9-31.3-15.1-48.2c-0.3-2-2.4-2.8-3.8-2.2c-4.5-21.7-10.7-43-18.4-63.8c-1-12.6-4.1-25-5.8-37.6   c-2.2-16.4-1.8-34.8,9.3-48.1c1.8-2.2-0.4-5.1-3-3.9c-11.7,5.2-21.8,14.5-27.1,26.3c-1.8,4-2.6,8.8-2,13.2   c-0.2-0.2-0.4-0.4-0.6-0.6c0.3,1.5,0.4,2.9,0.5,4.4c0.4,2.1,0.9,4.3,1.4,6.4c1.7,6.7,5.4,12.7,5.2,19.8c0,0,0,0.1,0,0.1   c25,78.1,8.6,165.1-27.4,237.5c-20.5,41.2-46.9,79.1-75.9,114.7c-14.5,17.9-29.7,35.2-45.1,52.3c-7.4,8.2-14.8,16.9-24.1,23.1   c-9.8,6.6-19.7,8-31.1,5.8c-10.5-2-21.8-5.2-32-0.1c-4.8,2.4-8.6,6.4-12.2,10.3c-5.1,5.5-10,11.2-15,16.8   c-4.9,5.4-9.7,10.9-14.6,16.3c-3.7,4.1-8.5,8.5-14.2,9.5c-10.9,1.8-8.1-12.9-4.3-23.8c2.6-3.2,4.4-7,4.8-11.6   c0.2-2.6-3.5-3.3-4.7-1.3c-2.1,3.6-4.1,7.7-5.6,11.9c-7.3,6.6-20.7,7.7-29.7,6.9c-9.1-0.8-18.2-2.5-27.4-1.4   c-5.8,0.7-10.1,2.1-12.6,7.5c-2.2,4.7-2.3,10.9-6.1,14.7c-5.5,5.5-11.7,10.3-17.1,16c-11.2,11.8-21.1,24.7-30.4,38   c-19.5,27.8-37.8,56.8-55.3,85.9c-19,31.5-36.5,63.8-52.6,96.8c-18.2,37.1-34.6,75-49.6,113.5c-0.8,2.2,1.5,3.5,3.2,2.9   c0.6-0.1,1.1-0.4,1.6-1c30.3-40.6,81-63.8,131.5-60.6c1.8,0.1,3.3-2.3,2.2-3.8c-8.1-11-16.3-21.9-24.4-32.9   c47-13.3,91.9-33.3,133.3-59.2c3.9-1.7,7.5-4.1,10.8-7c2.1-1.9-0.6-5.5-3-3.9c-3.5,2.3-7,4.6-10.6,6.8c-20.8,8.9-49.1-1.3-57.3-23   c42.1-23.8,84.2-47.5,126.3-71.3c15,20.1,12.5,48.8,0.4,69.8c-13.4,23.1-36.4,38.5-59.4,50.9c-2.9,1.5-0.4,5.6,2.5,4.3   c22.5-10.3,43.7-23.2,63.4-38.2c3.1,31.9-13,62.1-29.2,88.5c-17.5,28.5-37,55.7-58.3,81.5c-2,2.5,1.1,5.7,3.5,3.5   c25.4-22.6,50.8-45.2,76.1-67.8c12.6-11.2,25.1-22.4,37.7-33.6c10.4-9.2,24.1-21,38.9-16.8c1.9,35.9,5.9,71.6,12.1,107.1   c0.1,0.7,0.5,1.2,0.9,1.4c-9.3,25.6-19.1,50.9-29.1,76.2c-67.3,42-147.8,61.5-226.9,55.7c-22.9-1.7-45.6-5.5-67.7-11.4   c-3.2-0.9-4.2,3.6-1.3,4.8c33.9,13.9,68.4,26.6,103.3,38.1c-7.8,9.8-19,16.2-31.2,18.2c-2.9,0.2-5.9,0.4-8.8,0.7   c-3.1,0.3-3.3,5,0,5c3.2,0,6.3-0.2,9.4-0.7c28.6-1.4,57.2,3.5,83.6,14.7c-17.4,8.1-34.7,16.3-52.1,24.4c-2.2,1-1.2,4.9,1.3,4.7   c5.8-0.6,11.5-0.3,17.1,1c-9.4,7.9-18.8,15.9-28.3,23.8c-1.7,1.4-0.3,4.3,1.8,4.3c14.9-0.4,23.7,14.4,29.5,26.2   c4.7,9.5,9.2,19.1,13.8,28.7c-18.2,21.5-33.2,45.6-38.6,73.6c-0.5,2.8,3,4.4,4.6,1.9c5.9-9,18.3-4,23.7,2.7c6.4,7.9,9.6,18.6,13,28   c7.2,19.7,12.8,39.9,16.8,60.5c8,41.5,9.3,84.3,3.8,126.3c-3.1,23.8-8.5,47.2-15.9,70.1c-0.4,1.3,0.5,2.8,1.8,3.1   c11.2,2.9,20.6-5.3,29.3-11c4.5-3,10.2-6.8,15.9-5.2c8.3,2.3,10.3,13.6,12.5,20.7c11.8,38.2,20.6,77.3,26.3,116.9   c0.4,2.8,5.2,2.1,4.9-0.7c-2.1-20.6-2.5-41.2-1.3-61.9c1-17.5,2.1-36.4,8.1-53.1c0.2,0.9,0.9,1.7,1.8,1.9c12.9,2,25.9,4,38.8,6   c-0.8,1.8-1.7,3.6-2.5,5.3c-1.1,2.3,1.1,4.5,3.4,3.4c1.3-0.6,2.7-1.2,4-1.8c0.2,1.3,0.5,2.6,0.7,3.8c0.3,1.4,1.8,2.1,3.1,1.8   c31.3-7.6,59.1-25.5,90.8-31.9c31.1-6.3,63.1-4.1,94.5-7.9c16.7-2,33.1-5.8,48.4-13c1.5-0.7,1.5-2.8,0.5-3.9   c-20.2-21.7-52.4-29.3-80.2-20.1c6.6-12.8,13.3-25.6,19.9-38.4c1.2-2.3-1.2-4.6-3.4-3.4c-13.8,7.1-28.7,11.3-44.1,12.3   c-11.8-17.8,3.7-42.1,13.8-57.1c12.5-18.4,28.4-34.3,46.6-46.9c1-0.7,1.3-1.6,1.2-2.8c-2-12.3-18.2-10.3-26.9-8.2   c-4.9,1.2-15.4,2.4-18.3-3.1c-2.1-4,2.6-8.3,4.8-11.2c2.3-3.1,4.4-6.4,6.2-9.8c11.5-20.8,14.8-45.7,10.5-69   c10.9-16.1,23.6-30.7,39.7-42.3c0.3,0.3,0.6,0.5,1,0.8c34.8,28.7,80.6,44.3,124.7,28.8c7.4-2.6,14.4-5.9,21.1-9.9   c-0.1,0.4-0.1,0.8-0.2,1.2c3.1,9.8,10.6,17.5,17.8,25.4c6,6.6,12.1,13.1,18.1,19.7c3.9,4.3,7.9,8.4,9.8,14.2c0.5,1.6,2,3,3.3,4.2   c12.3,10.8,19.7,25.3,28.3,38.7c4.3,6.6,7.4,14.1,11.5,21c3.1,5.3,5.9,10.9,9.1,16.6c-0.4,1.2-1,2.9-1.5,4.5   c1.3,6.4,5.9,10.9,10.1,16.3c-0.3,2.7-0.7,5.7-1.2,10.2c2.3,8.8,9.9,16.2,15.9,24.4c10.2,14.1,20.7,27.9,31.5,41.5   c5.8,7.3,12.2,14.2,18.4,21.2c7.7,8.6,16.3,16.4,22.9,26.1c2.7,4,6.9,6.9,10.4,10.3c2.2,2.2,4.3,4.4,6.8,7   c-0.7,2.1-1.4,4.1-2.2,6.4c0.9,3.2,1.8,6.7,2.9,10c1.8,5.7,2,11.2,0.5,17.1c-1.8,7.4-1.6,12,0.4,19.1l-9.7,16.8   c1.5-0.9,3.9-0.2,3.8,2c-1.1,26.7-2.7,53.3-4.8,79.9c-5.2,31.6-10.8,63.1-14.4,90c-0.5,1.2-0.7,2.5-0.4,4c0.7,3,4.6,1.9,4.9-0.7   l0.2-1.7c0.3-0.3,0.7-0.4,1.3-0.5c1.9-0.3,3.2,0.6,3.6,2.7c0.7,1.9,0.4,4.2,0.3,6.2c-0.4,5.1-1.1,10.2-1.6,15.2   c-1.1,10.6-2.3,21.1-3.4,31.7c-0.1,1.2,1.3,2.7,2.5,2.5c12.9-1.7,24.6-7.1,34-16.1c9.1,9.2,15.9,20.4,19.6,32.9   c2,6.6,3,13.4,3.1,20.3c0.1,7-0.9,14.1-0.7,21.1c0.3,10.4,3.6,20.6,13.8,24.8c5.7,2.4,12.6,2.4,17.2-1.4c4.1,18.9-0.7,38-6.5,56.2   c-6.3,19.9-13.7,39.7-14.4,60.8c-0.8,23.3,4.9,46.6,9.1,69.4c4.4,24.1,8.8,48.3,13.3,72.4c8.8,48.4,19.1,96.8,24,145.9   c1.2,12,2,24,2.4,36.1c0.4,12.1,1,24.9-0.5,37c-0.5,4.3-4.5,6.7-7.2,10c-2.6,3.2-4.9,6.6-7,10.1c-4.1,7.2-6.9,15.1-8.5,23.2   c-3.1,16-1.3,32.9,6.1,47.6c3.5,6.9,8.6,14.6,16.9,15.8c7.7,1.1,14.8-3.7,19.1-9.7c5.9-8.3,5.7-18.9,5.3-28.6   c-0.5-11.6,0-22.9,2.1-34.3c3.9-21.3,11.5-41.6,17-62.5c5.4-20.5,7.9-41.2,6-62.4c-1.9-21-6.9-41.5-12-61.9   c-5.4-21.4-11.1-42.9-13.4-64.9c-2.3-22.2,0-43.9,4.9-65.6c9-40.3,25.2-81.5,17.1-123.3c-2.2-11.3-6.6-22-9.6-33.1   c-2.8-10.2-3.4-20.1-2.3-30.6c1.1-10.1,3.5-20.4,4.7-30.7c0.5,1.6,1,3.2,1.5,4.8c4.1,14.1,8.5,28.1,13.8,41.8   c2.6,6.7,5.1,13.2,5.6,19.8c7.8,10.2,14,22.4,18.2,34.6c2.3,6.7,5.6,13.1,8,19.8c2,5.7,4.4,11.1,7.2,16.4   c4.7,13.7,8.3,27.8,10.8,42c1.7,9.9,3,20,3.3,30c0.1,5.2-0.4,10.5-3.9,14.7c-2.6,3.1-5.9,5.6-8.4,8.8c-9.6,12.8-7.8,30.1-5.9,45   c2.8,20.7,4.6,41.4,4.6,62.3c0,24.3-2.2,48.5-6.4,72.3c-0.6,3.2,3.7,4.4,4.8,1.3c10.3-29,12-59.8,16.8-89.9   c2.4-14.7,5.5-29.4,11-43.3c2.8-7.1,6.3-14,10.5-20.4c2.2-3.3,4.6-7.7,8.3-9.5c4-2,8.4,0.5,12.6-0.4c2.5-0.6,4.7-1.9,6.4-3.6   c0.4,0.6,0.8,1.3,1.1,1.9c3.1,5.4,6.1,10.7,8.3,16.6c2,5.3,5.7,10,8.7,15c5.5,9.2,11.7,17.8,15.2,28.2c2.4,7,6.8,13.4,10.5,20   c4.4,7.8,8.5,15.6,10.9,24.3c1.1,4.2,4,7.9,6.3,11.7c7.9,12.9,16.9,25.2,22.4,39.5c0.6,1.6,1.7,3.2,2.7,4.6   c12.4,17,22.2,35.5,31.4,54.4c0.6,1.2,1.1,2.5,1.9,3.5c6.8,7.9,11.2,17.1,15.1,26.7c4.5,11.3,12.7,20.4,18.2,31.1   c3.6,7.1,8.3,13.6,13.4,21.9c0.5,5.6,3.1,12.1,8,17.6c0.9,1,1.5,2.3,2,3.5c4.7,12.1,10.7,23.5,16.8,34.9   C2532.4,3073.3,2531.7,3076.4,2531.8,3079z M772.2,647.2l2.9-3.6c0,0,1.4-0.3,3.8-0.8C776.6,644.2,774.4,645.7,772.2,647.2z    M863.4,428.8c4.5,5,10.5,5.8,16.7,5.1c0.1,0,0.2,0,0.4,0c10.2,0.6,20.4-3.4,29.7-8.1c4.2-1.2,8.3-2.6,12.2-4.4c0,0,0,0,0,0   c-5.6,12.1-16.3,21-28.5,26.4c-13.6,6-33.8,10.2-45.6-1.4c-5.9-5.8-11-14.5-13.1-22.5c-2.4-9.1,0.8-18.1,5.1-26.1   c3.5-6.5,8.1-14.9,14-21.6c7.6-5.3,16-8.5,25.3-9.1c0.3,0,0.6-0.1,0.9-0.1c0,0,0,0,0,0c0.1,0.5,0.3,0.9,0.5,1.3   c-8.5,7.1-15,15.9-19,26.4C858,405,855.2,419.8,863.4,428.8z M892.3,383.4c0.5-1.2,1.3-2.3,2.2-3.3c1-0.5,1.6-1.1,2-1.8   c4.1-3.1,10.6-6,15.7-5.6c6.5,0.4,11.4,5.6,14,11.1c2.8,5.8,4.5,12.7-0.4,17.8c-3.7,3.8-10.3,8.2-15.7,8.9   c-0.6,0.1-1.2,0.1-1.8,0.1c-0.5-2.6-2.8-5-6.1-4.2c-0.8,0.2-1.5,0.2-2.2,0c-0.3-0.3-0.6-0.5-0.9-0.8c-4.3-5.7-5.7-15-6.5-20.9   C892.6,384.2,892.5,383.8,892.3,383.4z"/>
	<path d="M1577.4,312.2c0,0-0.1,0-0.1-0.1c0,0.1-0.1,0.2-0.1,0.2C1577.3,312.3,1577.3,312.3,1577.4,312.2   C1577.4,312.2,1577.4,312.2,1577.4,312.2z"/>
	<path d="M1314.1,1911.2c-4.4-15.5-5.1-35.8,9.4-46.3c1.9-1.4,1.4-4.7-1.3-4.7c-34.1,0-66.4-21.2-81.3-51.7   c-3.9-8-6.2-16.5-7.8-25.3c-1.5-8.9-2.8-18-7.3-26c-4.6-8-12-13.9-19.2-19.5c-8-6.2-16.1-12.1-24.5-17.7   c-19.4-13-39.8-24.3-61.1-33.9c-2.6-1.2-5,1.7-3,3.9c2.6,3,5.1,5.9,7.7,8.9c-2-0.2-3.8,2.4-2.1,4.3c11.1,11.7,19.9,25.4,25.7,40.5   c2.8,7.3,4.9,14.9,6.3,22.7c1.3,7.1,0.9,14.8,3.2,21.7c4.7,13.8,21.9,13.9,33,19.8c12.8,6.8,23.2,17.4,31.3,29.4   c18.3,27.1,24.1,59.5,31.6,90.8c4,16.5,8.7,32.7,15.6,48.3c7,15.8,12.8,30.7,12.4,48.3c-0.9,34.9-18,68.7-9.4,103.7   c0.5,1.9,3.7,2.6,4.6,0.6c16.8-39.5,33.6-79,50.4-118.5c3.7-8.6,7.3-17.3,8.5-26.7c1-8.2-0.1-16.5-2.5-24.3   C1329.4,1942.7,1319,1928.1,1314.1,1911.2z"/>
	<path d="M1129.7,1118.6c4.5-11.9,3.6-25,4.6-37.5c0.9-10.8,3.8-23.1,12.8-30.1c7.8-6.1,22.7-5.9,26.9,4.5c0.8,2.1,3.8,1.9,4-0.5   c1.1-19,2.1-38.1,3.2-57.1c0.1-1.7-1.8-2.3-3-1.7c-13.7,6.2-25.8,25.8-42.8,21.2c-9-2.5-10.1-12.4-10.3-20.3   c-0.2-7.1,0.7-14.1,2.4-21c6.8-28.3,24.3-52.5,34-79.8c5.2-14.5,9.1-33.6,6.2-49c0,0,0,0,0,0c0-0.8-0.4-1.6-1.4-1.9   c-19.7-5.8-41.3-2.3-58.1,9.5c-2.1,1.5-0.3,4.6,2,3.5c5.8-2.7,12.4,1,15.5,6c3.8,6.1,2.7,13.9,0.9,20.4   c-3.9,13.5-11.1,26-17.4,38.4c-6.2,12.2-12,24.6-15.7,37.8c-3.7,13.1-6.1,27-12.9,39c-6.8,11.9-19.6,22.8-34.2,20.7   c-2.5-0.3-3.7,3.3-1.1,3.9c13.3,2.9,25,9.8,34,19.8c-4.8,11.3-7.6,23.2-8.3,35.5c-0.1,1.6,1.8,2.5,3,1.7c7.6-4.3,15.1-8.6,22.6-13   c0.5,27.1-4.4,53.9-14.6,79c-0.5,1.2,0.8,2.6,2,2.6C1103.9,1150.2,1122.7,1137.3,1129.7,1118.6z"/>
	<path d="M1529.9,546.5c1.5,0.6,3,1.2,4.4,1.9c-1.1,0.8-1.7,2.5-0.4,3.8c37.5,37.4,60.6,88.2,64,141.1c0.2,2.7,4.3,3.6,4.9,0.7   c4.8-22.9,4.3-46.4-1.5-68.9c1.6,0.5,3.2,1,4.8,1.5c1.4,0.4,3.4-0.8,3.2-2.4c-1.3-11.6-4.3-22.8-8.8-33.6c4.1-2.3,3.2-11.1,2.4-15   c-3-13.4-6.6-26.8-10.9-39.9c-6.2-19.1-15.1-38.8-33.3-49.1c-1.7-1-4.5,0.7-3.7,2.8c12,30.5,19.9,62.4,23.7,94.9   c-10.1-19.3-26.9-34.5-47.4-42.6C1528.3,540.4,1527,545.3,1529.9,546.5z"/>
	<path d="M994.1,287.3c-1.6-0.1-3.2,1.1-2.4,3c5,12.4,7,25.6,5.8,39c-1.1,11.8-3.6,23.6,1.6,34.9c4.3,9.3,13.6,17.6,13.7,28.4   c0,7.5-4.2,17.5,4,22.3c1,0.6,2.2,0.4,3-0.4c22.2-19.9,25.3-51.6,27.2-79.6c0.1-2-2.2-2.9-3.8-2.2c-7.3,3.6-12.3-5.4-16.2-10.1   c-4.2-5.2-8.3-10.4-12.3-15.7c-7.6-9.9-14.8-20-21.9-30.3c-1.8-2.6-6.1-0.1-4.3,2.5C990.3,281.9,992.2,284.6,994.1,287.3z"/>
	<path d="M1026.4,521.2c24.6-13.8,40.3-39.2,54.4-62.8c1.1-1.8-0.3-3.6-2.2-3.8c-0.7-0.3-1.3-0.6-2-0.9c2.7-6.7,5.4-13.5,8.1-20.2   c0.8-1.9-2-4.1-3.7-2.8c-2.8,0.5-3.9-0.4-3.4-2.6c-0.3-1.2-0.1-2.3,0.4-3.4c0.6-2,1.8-4.1,2.7-5.9c1.5-3.3,3.1-6.6,4.6-9.9   c3.2-6.9,6.5-13.8,9.7-20.7c1.1-2.4-2-5.4-3.9-3c-18.8,22.9-37.6,45.8-56.4,68.6c-2.1,2.5,1,5.5,3.5,3.5c4.8-3.8,11.6-3.9,16.6-0.6   c-12.9,23.6-28.7,50.8-57.1,56.7c-7.2,1.5-14.7,1.2-21.8,3.2c-5.4,1.5-10.5,4.2-15,7.5c-4.9,3.6-9.2,7.9-13.2,12.5   c-5.8,3.7-10.8,8.4-15.1,14.2c-1.9,2.5,2.2,5,4.2,2.7c1,1.1,3.1,1.4,4.2-0.2c3.1-4.2,6.3-8.5,9.7-12.5c9.3-5.7,20.2-8.2,31.8-9.2   C997.9,530.3,1012.7,528.9,1026.4,521.2z"/>
	<path d="M1182.8,752.7c0.2,2.9,3.9,3.3,4.9,0.7c10.1-25.6,39.1-33.7,63.3-39.2c5.2-1.2,12.1-3.3,17.1-0.4   c5.9,3.4,4.1,11.7,3.5,17.2c-1.5,13.5-0.7,27.1,1.9,40.5c0.4,2,3.7,2.6,4.6,0.6c6.4-14.5,11.8-29.4,16.4-44.6c0,0,0,0,0,0   c0.7-0.4,1.3-1.1,1.4-2.1c0.1-0.7,0.1-1.4,0.2-2.1c2.5,2,7,1.7,8.2-2.3c3.4-11.1,11.4-19,20.8-25.6c16.4,2.5,23.2,21.9,29.4,34.9   c6.4,13.4,15,25.9,26.2,35.7c11.6,10.1,25.2,16.6,40.5,18.4c8.7,1,17.6,0.9,26.4,0.5c8.4-0.4,16.8-1.5,24.5-5   c8.5-3.8,15.6-9.9,23.5-14.8c8.7-5.4,18.1-9.2,28.1-11.6c0.8-0.2,1.4-0.5,1.9-0.9c0.4,1,0.8,1.9,1.2,2.9c-1.7,0.2-3.2,1.9-2,3.7   c11,16.8,9,37.7,6.6,56.7c-1.3,9.9-2.5,20.7-9.6,28.3c-6.4,6.9-15.5,10.3-24.3,13.1c-38.5,11.9-79.5,17.4-114.5,38.7   c-8.6,5.2-16.7,11.3-23.8,18.4c0,0,0,0,0,0c-7.1,2.5-14.4,4.4-21.8,5.9c-1.3-2.4-2.6-4.8-3.9-7.2c-0.7-1.3-2.9-1.8-3.9-0.5   c-1.5,2-3.1,3.9-4.6,5.9c-0.9,1.2-3.3,5.5-4.6,5.9c-0.7,1.3-1.2,1-1.6-0.8c-0.3-0.8-0.6-1.6-0.8-2.4c-0.5-1.6-1-3.2-1.7-4.8   c-2-5-5.5-9-11.4-8.6c-3.6,0.3-7.6,3.5-11.3,2.9c-4-0.7-2.9-5.4-5.5-7.8c-5.4-4.9-10,2.4-14.7,4.1c-0.2-3.5,1.4-6.9-1.9-9.8   c-0.1-0.1-0.3-0.2-0.5-0.3c-0.6,2-1.1,4-1.9,5.9c-0.2,0.4-0.4,0.8-0.6,1.2c-0.3,0.5-0.7,0.9-1.1,1.2c-11.7,47.1-23.4,94.1-35,141.2   c-0.8,3.1,3.9,4.4,4.8,1.3c7.1-23.3,15.4-46.1,25.1-68.4c1.3,0.6,2.9,0.6,4.5,0c4.5-1.7,6.6-8.1,9.6-11.5c2.3-2.6,4.9-5,7.8-7   c1.2-0.8,2.6-1.9,4-2.4c4-1.6,4.1-0.2,6.8,1c1.6,0.7,3.2,0.9,4.9,0.4c1.9-0.4,4.5-2.8,6.2-2.3c1.6,0.5,1.1,3.7,2.1,5.3   c0.9,1.4,2.3,2.2,3.9,2.4c1,0.1,1.9-0.2,2.8-0.3c2-0.2,2.7-1.1,3.3,1.2c0.4,1.8-0.5,4.3-0.3,6.2c0.5,5.3,4.1,8.9,8.6,11.4   c-0.1,0.8-0.2,1.5-0.2,2.3c-0.3,7.9,6.9,9.3,13.2,9.5c9.2,0.3,18.3-1.5,27-4.6c17.6-6.4,32.9-17.6,47.4-29.4   c17-13.8,34-29,54.6-37.3c9.3-3.7,19.7-6.3,29.7-5.3c6.8,0.6,14.3,3.2,18.5,8.6c-1.7,3.1-2.4,6.6-2.9,10.3c-0.7,6,0,13.9-4.2,18.8   c-5.3,6.2-15.6,3.2-22.7,4.1c-8.9,1.1-17,6-24.8,10.1c-25.2,13-59.3,25.8-69,55.4c-0.5,1.6,0.5,2.7,1.7,3c0-0.4,0.1-0.9,0.2-1.4   c0.8-2.1,2.1-3.7,3.6-5c0,0,0,0,0,0c0.5-0.4,1.1-0.8,1.6-1.1c0,0,0,0,0,0c1.8-1,3.8-1.7,5.9-2c4.2-2.2,11.9-1.3,15-0.4   c6.2,1.8,13.4,4.3,19.7,1.5c2.7-1.2,4.2-3.1,6.2-5.2c2.5-2.6,3.9-2.8,7.3-1c1.5,0.8,2.7,1.9,4.3,2.5c6.5,2.4,13.3-0.5,18.6-4.5   c6.2-4.6,10.3-11.3,16.7-15.7c4.1-2.9,8.2-3.8,13-2.3c3.3,1,6.3,2.6,9.9,2.6c14.9,0.1,19.3-15.1,20.5-27.6c2.8,1.6,6.2,2,9.5,1.2   c6.3-1.4,10.3-6.7,13-12.2c3.8-7.9,6.6-16.4,9.8-24.6c3.6-9.2,7.2-18.3,10.8-27.5c1.8,0.3,3.5,0.5,5.3,0.8c1.1,0.2,2.2-0.1,2.8-1.2   c2.6-4.7,6-8.9,10.2-12.3c3.8-3,12.5-9.3,17.6-6.9c1.4,0.6,3.3,0.2,3.7-1.5c3.5-15.8,5-31.9,4.4-48c0,0,0,0,0,0   c1.8-4.6,3.1-9.5,4.1-14.4c1.3-6.5,4.5-17-1.7-22c-2.8-2.3-6.3-2.2-9.6-1.3c-6.5,1.8-11.4,3.7-18.3,2.2   c-11.5-2.5-20.3-10.7-28.1-19.1c-4.2-4.6-8.3-9.4-12.8-13.8c-4.6-4.6-9.8-8.6-14.6-12.8c-3.1-2.7-6.3-5.7-9.1-8.9   c-2.4-5.8-4.5-11.8-6-17.9c-3.5-13.9-2.8-28.1-3.3-42.3c-0.5-13.4-2.6-26.5-9-38.4c-5.9-11-14.5-20.6-24.5-28   c-17.5-12.9-38.6-14.1-58.6-8.3c17.2-16.6,43.4-23.1,66.3-15.2c25.4,8.9,42.8,34.9,42.5,61.5c0,2.9,4,3.3,4.9,0.7   c8-24.5-3.7-51.5-23.3-67.1c-10.7-8.5-23.4-14-36.6-17.3c-6.8-1.7-13.8-2.8-20.8-3.4c-7.1-0.7-15.2,0.4-22.1-1.5   c-8.6-2.4-9.7-12.2-5.7-19.1c4.3-7.4,13.1-11,20.5-14.2c2.4-1.1,1-4.6-1.3-4.7c-12.4-0.6-24.7-0.3-37,0.8c3.3-3.7,5.8-7.9,5.6-13.1   c-0.2-5.5-3.5-10.2-9-11.3c-6.1-1.3-14,0.8-20,2.1c-7,1.5-13.9,3.8-20.3,7.1c-12.7,6.5-21.9,17.2-25.1,31.2   c-3.8,16.5-0.4,34.4-7.9,50c-0.8,1.6,0.1,3.9,2.2,3.8c7.4-0.6,14.6-0.3,21.9,1c0.7,13.2-17.2,19.4-25.8,26.1   c-4.3,3.4-7.9,7.5-9.5,12.9c-2.2,7.1-1.1,14.6-6.4,20.5c-4.1,4.6-9.3,8.1-13.5,12.6c-1.6,1.7-3.1,3.5-4.5,5.3   c2.2-5.1,5.3-9.7,9.9-13c2.1-1.5,0.9-5.8-1.9-4.6c-0.2,0.1-0.4,0.2-0.6,0.3c-8.9,3.7-17.8,7.4-26.7,11.2c-5.3,2.2-9.2,3.6-15,3.2   c-3.8-0.3-7.3,0.2-11,1.1c-9.1,2.2-18.2,5-27.2,7.5c-7.8,2.2-20.9,8.6-28.2,2.8c-5.9-4.8-7.3-13.8-8.9-20.7   c-2.1-9.3-4-18.9-2.7-28.4c1.1-8.3,4.8-15.7,11.8-20.6c4.6-3.2,10.1-5,15.4-4.1c-0.5-2-1-3.9-1.3-5.9c-0.1-0.2-0.2-0.4-0.3-0.5   c-8-10.6-20.7-3.6-27.6,4.4c-9.3,10.8-15,23.6-16,37.9c-1.1,16.1,1.1,32.7,2.1,48.8C1180.7,717.7,1181.7,735.2,1182.8,752.7z    M1263.6,973.8c0.1,0.2,0.3,0.4,0.3,0.6C1263.9,974.2,1263.8,974,1263.6,973.8z M1250.2,995.8   C1250.2,995.8,1250.2,995.8,1250.2,995.8c6.9-27.8,13.8-55.7,20.7-83.6C1264,940.1,1257.1,968,1250.2,995.8z M1283,906.8   c1.3,0.1,1.8,0.3,2.1,0.7C1284.8,907.1,1284.3,906.8,1283,906.8z M1285.7,910.4c0.4,1,0.6,1.9,1.4,2.8   C1286.3,912.3,1286.1,911.4,1285.7,910.4z M1312,958c-0.1-0.7-0.2-1.3-0.4-2C1311.8,956.7,1311.9,957.3,1312,958   c0.1,0.7,0.3,1.2,0.4,1.5C1312.3,959.1,1312.1,958.7,1312,958z M1322.1,961.8c0.4,0.6,0.7,1.3,0.9,2.1   C1322.8,963.1,1322.5,962.4,1322.1,961.8z M1406.1,1012.7c5.5-6.8,12.7-12.3,20.2-17C1418.7,1000.4,1411.6,1005.9,1406.1,1012.7z    M1522.6,927.8c0,0,0-0.1-0.1-0.1c0.2-0.2,0.4-0.4,0.5-0.6C1522.9,927.3,1522.8,927.5,1522.6,927.8z M1523.8,926   c0.1-0.3,0.1-0.5,0.1-0.8C1523.9,925.5,1523.9,925.7,1523.8,926z M1521.2,741c0.3,1,0.7,1.9,1,2.9c-0.3,0-0.7,0.1-1.1,0.2   c-0.5,0.1-1,0.3-1.5,0.4c0,0,0,0,0,0C1520.3,743.2,1520.8,742,1521.2,741z M1505,747.2c0.4,0.7,0.7,1.3,1.1,1.8c0,0,0,0,0,0   c-0.8,0.3-1.6,0.6-2.3,1c0,0,0,0,0,0C1504.2,749,1504.6,748.1,1505,747.2z M1420.5,754.5c3.1,2.9,6.5,5.5,10.2,7.9   c0.2,0.1,0.3,0.2,0.5,0.3c-3.7-1.9-7.3-4.2-10.6-6.7C1420.7,755.5,1420.6,755,1420.5,754.5z M1435.2,775.4   C1435.2,775.4,1435.2,775.4,1435.2,775.4C1435.2,775.4,1435.2,775.4,1435.2,775.4C1435.2,775.4,1435.2,775.4,1435.2,775.4z    M1430.9,658.2c5.9-2.4-0.7-8.2,14.6-1.4s27.8,13.4,27.8,13.4s8.5,5.9,8.5,7.1c0,1.2,0.2,3.5,0.2,3.5l-4.2,4.5l-15.3,5.2h-9.2   l-8.9-4.5l-11.5-9.9c0,0-1.6-2.5-3-3.2c-0.3-4.5-0.5-9.4-2.1-13.6C1428.7,659.1,1429.7,658.7,1430.9,658.2z M1413.2,667.2   c0.7-0.5,1.1-1.1,1.4-1.7c1.6-0.7,2.9-2.2,3-4.1c0.3,0.2,0.5,0.6,0.6,1.2c0.3,1.2,0.6,2.3,0.8,3.5c0.5,3.4,0.7,6.8,1,10.2   c0.7,6.7,1.4,13.5,3.1,20c2.7,10.4,8.2,20.3,17.1,26.6c18.7,13.3,41.1,3.2,56.3-10.7c4.2,10.8,3.4,23.2-1.9,33.6   c-3.5,6.7-8.6,12.4-15.4,15.9c-8.5,4.4-17.9,3-26.7,0.2c-33.4-10.8-53.6-45.7-47.2-80c0.4-2.1-0.3-3.8-1.5-4.9   C1406.4,673.5,1409.5,670.2,1413.2,667.2z M1402.9,662.5c0.1,0,0.2-0.1,0.2-0.1c0,0.1,0.1,0.2,0.1,0.3c-22,19.9-23.1,53.9-8.6,78.9   c7.4,12.8,18.5,23,31.5,29.8c-8.6-1.6-23.9-5.1-33.4-11.6c-12.1-1.6-16.9-17.7-20.6-27.5c-3.6-9.6-9.3-17.7-16-25.3   c-3.5-4-8-8.6-9.8-13.9C1361.3,685.1,1401.2,663.6,1402.9,662.5z M1336.1,688.6l0.3,0.4c-0.2-0.1-0.4-0.2-0.5-0.3   C1335.9,688.7,1336,688.6,1336.1,688.6z M1301.6,701.9C1301.6,701.9,1301.6,701.9,1301.6,701.9c-0.4,1.5-0.7,3-1.1,4.5   C1300.8,704.9,1301.2,703.4,1301.6,701.9z M1298.3,694.3c-0.5,2-1,3.9-1.4,5.9c0,0,0,0,0,0C1297.4,698.2,1297.8,696.3,1298.3,694.3   z M1291.2,721.5c-2,6.7-4.1,13.3-6.3,19.9C1287.1,734.9,1289.2,728.2,1291.2,721.5z M1277.3,726.5c-0.1,2.2-0.3,4.4-0.6,6.6   C1276.9,730.9,1277.2,728.7,1277.3,726.5z M1277,762.1c-0.4-3-0.7-5.9-0.9-8.9C1276.3,756.2,1276.6,759.1,1277,762.1z M1253,708.6   c-7.1,1.5-14.6,3.3-21.9,5.5C1238.4,711.9,1245.9,710.1,1253,708.6z M1216,610.7c-2.7,0.5-5.4,1.4-7.9,2.7   C1210.6,612.1,1213.2,611.1,1216,610.7z M1199.3,620.1c1.6-1.7,3.4-3.3,5.4-4.6C1202.7,616.8,1200.9,618.3,1199.3,620.1   c-2.4,2.5-4.2,5.3-5.5,8.3C1195.1,625.4,1196.9,622.6,1199.3,620.1z M1191.7,662c0.2,1.3,0.5,2.7,0.7,4.2   C1192.2,664.7,1192,663.3,1191.7,662c-0.3-1.7-0.6-3.5-0.8-5.3C1191.1,658.5,1191.4,660.3,1191.7,662z M1194.6,734.1   c-2.1,2.1-4,4.3-5.7,6.8C1190.6,738.5,1192.5,736.2,1194.6,734.1z M1188,630.6c-0.6,1.2-1.2,2.5-1.7,3.8   C1186.9,633.1,1187.4,631.9,1188,630.6z"/>
	<path d="M1243.6,425.8c6.3-5.5,12.5-10.9,18.8-16.4c2.1,7.5,2.4,15.3,0.5,23c-1.2,4.7-6.3,12.3-0.8,16.2c4.7,3.4,10.3-1.9,15.1-0.2   c3.6,1.3,3.9,7.4,4.4,10.5c0.6,3.9,0.9,7.9,1,11.9c0.5,21.1-5.8,42-17.5,59.4c-5.9,7.2-12.1,14.1-18.7,20.8   c-2.3,2.3,1.1,5.6,3.5,3.5c7.5-6.2,14-13.5,19.4-21.6c4.4-5.5,8.7-11.1,12.7-16.9c8.2-11.9,20.4-27.5,18.2-42.9   c-1.2-8.4-6.6-15.5-7.8-24c-1.2-8.6,0.5-17.3,1.1-25.8c0.4-5.3,2-15.5-3.1-19.2c-2.3-1.6-4.9-1.1-7.5-0.9c-5,0.3-8.7-2.6-10.4-7.3   c-3.2-9.5,3.9-21.8,7.2-30.6c4-10.4,7.9-20.9,11.9-31.3c0.5-1.3-0.6-2.7-1.8-3.1c-7.3-2.2-14.7-0.2-20,5.2   c-0.4,0.4-0.6,0.9-0.7,1.4h0c-2.7,30.2-16.6,57-29.4,85.3C1238.5,425.3,1241.4,427.7,1243.6,425.8z"/>
	<path d="M2003.8,1055.4c2.5,3.7,6.3,5.6,10.7,3.9c4.8-1.9,9.2-9.1,14.9-6.2c5,2.5,7.1,10.1,7.1,15.2c0.1,11.5-5.6,23.6,3.4,33.3   c1,1.1,3.2,0.9,3.9-0.5c2.4-4.9,4.4-10,5.8-15.2c5.4,12.8,9,26.1,10.9,39.9c0.4,3,4.7,1.9,4.9-0.7c2.5-26.6-1.5-53.7-11.9-78.4   c-4.3-10-13.8-26-5.3-36.2c7.7-9.3,22.8-4.4,32.2-1c1.6,0.6,3.1-0.9,3.2-2.4c0.1-11.1-8.4-18.6-16.6-24.9   c-6.8-5.3-16.3-11.2-18.9-19.8c0.7,0.1,1.4,0.2,2.1,0.1c1.9-0.1,3.2-2.1,2.2-3.8c-7.9-13.3-16.3-27.1-29-36.4   c-5.5-4-14.6-7.8-22-12.7c-3-1.2-5.7-2.9-7.9-5.5c-0.4-0.3-0.8-0.7-1.1-1.1c-0.1,0.7-0.2,1.3-0.3,2c-0.2,1.9-0.1,3.8-0.5,5.7   c0,0.2-0.1,0.3-0.1,0.5c0.3,3.8,0.3,7.6,0.7,11.1c1.2,9.7,6,16,13.5,21.9c8.6,6.8,15,14.1,18.7,24.6c3.1,8.9,4.5,18.3,5.5,27.7   c-5.2-2.1-11.4-0.8-16.9,0.8c-5.4,1.6-21.3,5.9-21.5-4.2c-0.1-3.2-5.1-3.2-5,0c0.2,14.8,2.9,29.4,8.2,43.2   C1997,1042.8,1999.9,1049.6,2003.8,1055.4z"/>
	<path d="M1043.2,1221c-9.8,13-20.1,26.5-34.4,34.9c-7.1,4.1-15.2,7-23.4,7.2c-8.1,0.2-15.5-2.6-23.1-5.1c-7.2-2.3-14-3-21.6-2.8   c-9.2,0.3-17.2-1.2-25.6-5c-15.8-7.1-30.8-16.2-45.9-24.4c-6.6-3.5-13.5-7-20.2-10.8c-6.3-3.6-12.3-7.6-17.6-12.5   c-2.2-2.1-4.3-4.3-6.1-6.7c-2-2.5-5.5,1-3.5,3.5c6.4,8.3,15,14.2,24,19.4c19.5,20.4,42,37.9,66.8,51.5c17.1,9.4,36.2,19,55.9,20.5   c18.5,1.4,37.4-4.4,51.9-15.9c16.1-12.9,25.9-32.2,27.6-52.6C1048,1219.5,1044.5,1219.3,1043.2,1221z"/>
	<path d="M1032.5,1190.5c-5.2,1.6-11.1,1.2-16.5,1.4c-6.2,0.3-12.3,0.6-18.5,0.8c-13.2,0.4-26.5,0.5-39.7-0.5   c-11.6-0.8-22.4-4.3-33-8.6c-0.5-1.2-1-2.4-1.5-3.5c-1-2.4-4.1-1.1-4.5,1c-0.1,0.5,0,1,0.2,1.5c0.7,1.6,1.4,3.2,2.1,4.9   c0,0,0,0,0,0c3.4,7.4,7.3,14.8,13.4,20.3c7.3,6.5,17.4,9.9,26.8,12c10.3,2.3,21.3-1.5,31.3-3.5c11.9-2.3,24-5.4,36.1-4.9   c7.6,0.3,18.2,5.5,23.7-2.4c3.5-5,4.7-16,1.2-21.2C1048,1178.9,1038.8,1188.6,1032.5,1190.5z"/>
	<path d="M1078,810.2c-1.3-2.3-3.2-3.5-5.8-4c-2.3-0.4-2.2,0.2-2-2.6c0.2-3.1,0.9-6.3,1.4-9.3c0.5-3.1-4.4-4.5-4.8-1.3   c-0.1,0.7-0.2,1.3-0.3,2c-0.7-0.1-1.4,0.1-2,0.7c-6.1,5.8-11.6,12.1-16.5,18.9c-3.9,5.5-9.6,11.6-5.7,18.2   c4.9,8.2-0.9,15.7-1.1,24.4c-0.1,5,1.4,10.6,6.2,13c3.6,1.8,6.2,0.7,7.6,5.3c0.7,2.3,1.3,4.2,3.8,5c5.5,1.7,12.4-4.7,15.4-8.7   c3.8-5.1,5.4-11.4,4.5-17.7c-1.2-8-7.5-16.5-5-24.7C1075.7,822.8,1082.2,817.5,1078,810.2z"/>
	<path d="M2072.3,2181.5l1.2-2C2072.8,2179.8,2072.3,2180.5,2072.3,2181.5z"/>
</g>
</svg>